<?xml version="1.0" encoding="UTF-8"?>
<svg width="393px" height="105px" viewBox="0 0 393 105" version="1.1" xmlns="http://www.w3.org/2000/svg" xmlns:xlink="http://www.w3.org/1999/xlink">
    <title>logo</title>
    <g id="logo" stroke="none" stroke-width="1" fill="none" fill-rule="evenodd">
        <path d="M383.583,0.589 C383.492,0.628 382.329,0.819 381,1.013 C379.671,1.208 377.646,1.504 376.5,1.671 C375.354,1.839 374.192,2.05 373.917,2.14 L373.417,2.305 L373.864,2.319 C375.09,2.358 376.247,3.366 377.134,5.167 L377.75,6.417 L377.795,25.625 C377.82,36.19 377.793,44.833 377.735,44.833 C377.642,44.833 376.05,43.572 375.833,43.327 C374.642,41.978 368.225,38.729 366.083,38.39 C365.808,38.346 365.433,38.247 365.25,38.17 C361.374,36.536 348.934,37.565 343.667,39.955 C342.191,40.625 340.108,41.675 339.881,41.863 C339.579,42.114 339.052,42.425 338.533,42.659 C337.915,42.937 333.965,46.19 333.414,46.874 C332.742,47.709 331.297,49.469 331.088,49.708 C330.948,49.869 330.833,50.05 330.833,50.112 C330.833,50.173 330.728,50.342 330.6,50.487 C330.472,50.632 330.219,51.012 330.038,51.333 C329.857,51.654 329.325,52.579 328.855,53.388 C328.385,54.197 328,54.996 328,55.163 C328,55.33 327.813,55.792 327.585,56.191 C327.357,56.59 327.17,57.049 327.169,57.211 C327.168,57.372 327.101,57.635 327.02,57.794 C326.735,58.356 326.134,60.259 326.008,61 C325.938,61.412 325.763,62.275 325.62,62.917 C324.3,68.832 324.782,77.736 326.757,83.917 C327.57,86.461 329.264,90.263 329.774,90.687 C329.898,90.79 330.002,90.959 330.004,91.062 C330.006,91.165 330.269,91.587 330.587,92 C330.906,92.412 331.375,93.066 331.629,93.452 C332.171,94.274 334.446,96.649 335.706,97.707 C337.156,98.925 341.221,101.5 341.694,101.5 C341.777,101.5 342.208,101.684 342.651,101.909 C347.964,104.601 359.952,104.66 365.127,102.02 C365.508,101.826 365.91,101.667 366.02,101.667 C366.435,101.667 370.643,99.469 371.292,98.913 C371.665,98.594 372.019,98.333 372.08,98.333 C372.413,98.333 375.524,95.591 376.46,94.473 C377.061,93.754 377.616,93.167 377.693,93.167 C377.77,93.167 377.833,95.52 377.833,98.396 C377.833,102.464 377.881,103.666 378.048,103.804 C378.272,103.99 378.665,103.903 383.5,102.594 C384.738,102.259 386.2,101.874 386.75,101.738 C387.3,101.602 388.238,101.347 388.833,101.172 C389.429,100.997 390.442,100.725 391.083,100.567 C392.361,100.253 392.825,100 392.121,100 C391.215,100 389.062,99.421 388.387,98.995 C387.155,98.219 386.57,97.244 385.64,94.417 C385.462,93.874 385.405,85.052 385.335,47.167 L385.25,0.583 L384.5,0.551 C384.087,0.533 383.675,0.55 383.583,0.589 M216.986,1.736 C216.947,1.775 216.291,1.892 215.528,1.996 C214.764,2.101 213.977,2.249 213.778,2.326 C213.579,2.403 213.079,2.557 212.667,2.669 C211.954,2.863 211.045,3.22 210.5,3.52 C210.362,3.595 209.875,3.853 209.417,4.091 C208.958,4.33 208.428,4.669 208.239,4.846 C208.05,5.022 207.796,5.167 207.675,5.167 C206.951,5.167 202,11.029 202,11.886 C202,12 201.747,12.622 201.437,13.268 C200.794,14.609 200.333,16.077 200.333,16.784 C200.333,17.049 200.264,17.338 200.179,17.425 C199.762,17.853 199.613,20.441 199.517,28.917 L199.417,37.75 L194.417,37.833 L189.417,37.917 L189.363,38.292 L189.31,38.667 L194.03,38.669 C196.626,38.67 198.919,38.716 199.125,38.772 L199.5,38.872 L199.497,66.311 C199.494,95.735 199.503,95.399 198.668,97.286 C198.484,97.702 198.333,98.117 198.333,98.208 C198.333,99.081 195.446,101.883 194.232,102.189 C192.597,102.6 193.848,102.667 203.25,102.667 C209.639,102.667 213,102.609 213,102.5 C213,102.408 212.832,102.333 212.627,102.333 C211.301,102.333 209.193,100.467 208.177,98.395 C206.912,95.813 206.991,98.011 207.04,66.75 L207.083,38.75 L218.667,38.75 L230.25,38.75 L230.347,63.667 C230.412,80.466 230.504,89.045 230.629,90 C230.951,92.456 231.436,94.321 232.083,95.597 C232.311,96.048 232.499,96.536 232.499,96.683 C232.5,96.829 232.65,97.084 232.833,97.25 C233.017,97.416 233.167,97.623 233.167,97.71 C233.167,97.797 233.354,98.091 233.583,98.364 C233.813,98.636 234,98.949 234,99.059 C234,99.334 236.099,101.345 236.917,101.854 C238.184,102.642 240.215,103.5 240.814,103.5 C241.063,103.5 241.338,103.57 241.425,103.655 C241.629,103.854 243.916,104.154 245.417,104.177 C248.622,104.227 252.558,103.526 254.536,102.553 C254.968,102.341 255.404,102.167 255.505,102.167 C255.605,102.167 256.615,101.717 257.75,101.167 C258.885,100.617 259.922,100.167 260.055,100.167 C260.328,100.167 260.488,99.856 260.378,99.542 C260.255,99.187 259.84,99.304 258.151,100.167 C257.254,100.625 256.421,101.003 256.301,101.006 C256.181,101.009 255.783,101.156 255.417,101.333 C255.05,101.51 254.659,101.658 254.547,101.661 C254.436,101.664 253.997,101.785 253.571,101.93 C252.547,102.277 248.912,102.643 248.167,102.474 C247.846,102.401 247.207,102.339 246.748,102.337 C246.288,102.335 245.501,102.177 244.998,101.986 C244.495,101.795 243.933,101.594 243.75,101.539 C242.97,101.306 241.652,100.345 241.024,99.551 C240.653,99.081 240.27,98.647 240.174,98.588 C239.984,98.47 239.333,97.124 239.333,96.848 C239.333,96.754 239.183,96.41 239,96.083 C238.817,95.757 238.667,95.341 238.667,95.159 C238.667,94.978 238.598,94.699 238.514,94.539 C238.43,94.38 238.224,93.575 238.056,92.75 C237.495,89.996 237.807,39.166 238.387,38.797 C238.495,38.728 242.273,38.671 246.782,38.669 C255.053,38.667 255.46,38.637 254.994,38.076 C254.823,37.869 253.554,37.833 246.48,37.833 L238.167,37.833 L238.167,32.245 C238.167,26.193 238.189,26.333 237.275,26.562 C236.905,26.655 236.878,26.754 236.782,28.372 C236.688,29.947 236.519,30.788 236.144,31.539 C236.065,31.699 236,31.936 236,32.067 C236,32.384 234.374,34.518 233.747,35.025 C230.688,37.495 228.509,37.833 215.651,37.833 L207,37.833 L207.001,28.292 C207.001,23.009 207.073,18.304 207.162,17.75 C207.417,16.156 207.852,14.294 208.102,13.725 C208.229,13.436 208.333,13.084 208.333,12.943 C208.333,12.802 208.408,12.64 208.5,12.583 C208.592,12.527 208.667,12.313 208.667,12.107 C208.667,11.902 209.004,11.187 209.417,10.518 C209.829,9.849 210.167,9.263 210.167,9.217 C210.167,8.921 212.407,6.53 213.155,6.026 C213.653,5.691 214.253,5.287 214.488,5.127 C214.724,4.968 215.103,4.757 215.331,4.658 C215.559,4.559 215.971,4.372 216.247,4.242 C218.522,3.172 225.508,2.903 226.101,3.862 C226.148,3.938 226.442,4 226.755,4 C227.067,4 227.569,4.135 227.87,4.301 C228.171,4.466 228.792,4.738 229.25,4.906 C229.708,5.074 230.322,5.389 230.614,5.606 C230.906,5.823 231.218,6 231.308,6 C231.398,6 231.497,6.058 231.528,6.128 C231.558,6.198 231.792,6.418 232.048,6.615 C232.564,7.015 232.539,7.035 231.25,7.248 C228.019,7.782 226.165,12.223 228.118,14.75 C228.699,15.502 229.525,16.294 229.908,16.467 C230.096,16.552 230.451,16.717 230.696,16.833 C231.553,17.237 233.806,16.981 234.808,16.365 C236.619,15.25 237.208,14.229 237.225,12.175 C237.25,9.135 235.399,7.071 230.333,4.489 C229.61,4.12 227.755,3.399 227.083,3.225 C226.9,3.178 226.6,3.078 226.417,3.003 C225.609,2.673 223.942,2.285 221.431,1.841 C220.479,1.673 217.128,1.594 216.986,1.736 M44.75,10.504 C44.292,10.584 42.867,10.777 41.583,10.932 C40.3,11.088 39.175,11.271 39.083,11.339 C38.992,11.407 38.617,11.497 38.25,11.539 C37.34,11.643 34.327,12.312 33.917,12.502 C33.733,12.586 32.946,12.853 32.167,13.094 C31.387,13.336 30.45,13.677 30.083,13.852 C29.717,14.027 29.192,14.241 28.917,14.326 C27.841,14.66 25.702,15.619 24.75,16.193 C24.2,16.524 23.362,16.99 22.889,17.227 C18.808,19.271 11.69,25.574 9.134,29.409 C8.886,29.78 8.458,30.383 8.183,30.75 C7.907,31.117 7.486,31.809 7.247,32.288 C7.008,32.768 6.743,33.203 6.659,33.255 C6.386,33.423 3.823,38.712 3.417,39.944 C3.2,40.601 2.915,41.351 2.784,41.611 C2.652,41.871 2.452,42.496 2.338,43 C2.225,43.504 2.022,44.254 1.887,44.667 C1.562,45.662 1.359,46.606 1.083,48.417 C0.957,49.242 0.76,50.404 0.646,51 C0.315,52.731 0.364,62.251 0.717,64.667 C1.079,67.145 1.245,68.027 1.582,69.25 C1.733,69.8 1.894,70.475 1.94,70.75 C1.985,71.025 2.084,71.4 2.16,71.583 C2.235,71.767 2.413,72.292 2.555,72.75 C2.976,74.112 3.196,74.714 3.524,75.391 C3.694,75.743 3.833,76.137 3.833,76.266 C3.833,77.197 7.863,84.186 9.782,86.583 C10.369,87.317 11.052,88.173 11.3,88.487 C12.536,90.052 15.924,93.195 18.054,94.752 C18.679,95.209 19.403,95.752 19.661,95.958 C19.92,96.165 20.205,96.333 20.295,96.333 C20.385,96.333 20.557,96.451 20.677,96.596 C20.796,96.74 21.162,97.004 21.489,97.184 C21.816,97.363 22.308,97.652 22.583,97.826 C23.337,98.303 27.783,100.5 27.995,100.5 C28.097,100.5 28.472,100.649 28.829,100.831 C29.451,101.148 31.393,101.825 34.25,102.721 C41.53,105.003 54.792,105.455 62.23,103.675 C62.974,103.497 64.108,103.26 64.75,103.148 C65.392,103.037 65.988,102.883 66.075,102.806 C66.162,102.73 66.369,102.667 66.536,102.667 C66.702,102.667 66.968,102.599 67.127,102.515 C67.491,102.325 69.136,101.833 69.408,101.833 C69.52,101.833 70.151,101.571 70.81,101.25 C71.469,100.929 72.101,100.666 72.213,100.666 C72.435,100.666 75.114,99.303 76.937,98.262 C78.808,97.194 81.633,95.018 83.445,93.25 C84.197,92.517 85.112,91.656 85.48,91.337 C86.264,90.656 86.405,90.283 86.01,89.926 C85.396,89.37 84.97,89.591 83.24,91.362 C81.295,93.354 78.121,96 77.678,96 C77.58,96 77.5,96.061 77.5,96.135 C77.5,96.209 76.881,96.596 76.125,96.995 C75.369,97.394 74.563,97.848 74.333,98.005 C74.104,98.162 73.204,98.568 72.333,98.908 C71.462,99.247 70.554,99.63 70.314,99.759 C69.89,99.986 69.55,100.089 66.75,100.838 C66.017,101.034 65.267,101.257 65.083,101.334 C64.9,101.411 64.487,101.517 64.167,101.57 C63.846,101.624 63.058,101.781 62.417,101.92 C57.732,102.935 50.058,103.453 46.083,103.023 C43.351,102.727 40.804,102.331 39.917,102.064 C39.458,101.926 38.342,101.623 37.436,101.391 C36.53,101.159 35.555,100.838 35.269,100.678 C34.984,100.518 34.317,100.226 33.788,100.028 C32.808,99.662 31.647,99.079 30.75,98.503 C30.475,98.327 29.915,98.026 29.506,97.835 C29.097,97.644 28.628,97.366 28.463,97.217 C28.299,97.068 28.025,96.865 27.854,96.765 C25.699,95.504 20.668,90.906 19.24,88.892 C18.971,88.512 18.398,87.748 17.969,87.195 C17.539,86.643 17.061,85.941 16.907,85.637 C16.753,85.332 16.531,84.971 16.413,84.833 C15.699,83.996 12.936,78.357 12.411,76.667 C12.254,76.162 12.072,75.638 12.006,75.5 C11.94,75.362 11.68,74.575 11.428,73.75 C11.176,72.925 10.907,72.1 10.83,71.917 C10.647,71.481 9.985,68.176 9.679,66.167 C9.055,62.084 8.872,54.866 9.313,51.75 C10.04,46.606 10.161,45.975 11.011,42.917 C11.831,39.966 12.115,39.089 12.478,38.377 C12.673,37.994 12.833,37.591 12.833,37.482 C12.833,37.372 13.021,36.882 13.25,36.392 C13.828,35.155 14.486,33.798 14.654,33.5 C14.731,33.362 14.934,32.972 15.105,32.632 C15.701,31.451 17.168,29.04 17.416,28.834 C17.554,28.719 17.667,28.552 17.667,28.462 C17.667,28.146 20.613,24.572 22.167,23.003 C24.291,20.859 28.181,17.936 30.417,16.805 C30.875,16.573 31.662,16.165 32.167,15.898 C33.31,15.293 34.72,14.667 34.939,14.667 C35.03,14.667 35.399,14.525 35.76,14.353 C36.121,14.18 36.679,13.988 37,13.927 C37.321,13.865 37.733,13.748 37.917,13.667 C38.482,13.416 41.03,12.796 42.083,12.651 C42.633,12.576 43.608,12.443 44.25,12.357 C50.052,11.574 60.883,12.415 66.417,14.078 C67.793,14.492 70.394,15.337 70.75,15.486 C72.226,16.105 75.231,17.628 75.449,17.869 C75.597,18.033 75.813,18.167 75.93,18.167 C76.046,18.167 76.364,18.354 76.636,18.583 C76.909,18.813 77.182,19 77.244,19 C77.587,19 80.5,21.631 80.5,21.941 C80.5,22.098 80.269,22.167 79.743,22.167 C76.586,22.167 74.179,26.61 75.649,29.724 C77.334,33.295 82.847,33.986 84.781,30.869 C84.935,30.62 85.187,30.267 85.34,30.083 C86.113,29.159 86.164,26.625 85.439,25.144 C85.034,24.317 81.264,20.345 80.319,19.75 C79.712,19.368 78.596,18.549 78.026,18.069 C77.691,17.786 77.154,17.412 76.833,17.237 C76.512,17.063 76.125,16.82 75.973,16.698 C75.577,16.379 71.794,14.5 71.549,14.5 C71.436,14.5 70.91,14.285 70.38,14.022 C69.363,13.517 68.541,13.229 66.5,12.663 C65.813,12.472 64.875,12.21 64.417,12.08 C59.809,10.773 48.436,9.862 44.75,10.504 M285.667,36.853 C282.857,37.054 279.842,37.617 278.583,38.176 C278.4,38.257 277.859,38.474 277.38,38.658 C276.432,39.021 274.214,40.147 273.417,40.669 C273.142,40.849 272.804,41.048 272.667,41.111 C272.529,41.174 272.379,41.273 272.333,41.331 C272.287,41.389 271.726,41.807 271.086,42.26 C269.667,43.264 266.894,45.898 266.234,46.87 C265.968,47.262 265.431,48.006 265.042,48.525 C264.652,49.044 264.333,49.541 264.333,49.629 C264.333,49.716 264.184,49.978 264.002,50.21 C263.583,50.742 261.77,54.336 261.416,55.333 C260.187,58.804 259.451,61.775 259.009,65.054 C258.792,66.663 258.777,73.902 258.988,74.873 C259.279,76.209 259.667,78.46 259.667,78.816 C259.667,79.011 259.735,79.301 259.818,79.461 C260.041,79.887 260.5,81.491 260.5,81.843 C260.5,82.01 260.575,82.193 260.667,82.25 C260.758,82.307 260.833,82.501 260.833,82.682 C260.833,82.863 261.021,83.381 261.25,83.833 C261.479,84.286 261.667,84.742 261.667,84.847 C261.667,85.144 263.453,88.628 263.919,89.238 C264.147,89.537 264.333,89.842 264.333,89.917 C264.333,89.991 264.521,90.298 264.75,90.598 C264.979,90.899 265.167,91.206 265.168,91.281 C265.172,91.588 268.84,95.633 270,96.609 C272.491,98.705 277.251,101.666 278.132,101.667 C278.25,101.667 278.658,101.826 279.04,102.02 C279.898,102.458 282.248,103.146 283.583,103.349 C284.133,103.433 284.68,103.538 284.798,103.582 C286.975,104.389 298.684,103.586 300.706,102.49 C300.865,102.404 301.128,102.332 301.289,102.331 C301.451,102.33 301.91,102.143 302.309,101.915 C302.708,101.687 303.169,101.5 303.334,101.5 C303.937,101.5 307.254,99.441 309.226,97.842 C311.068,96.349 314.119,92.718 313.935,92.238 C313.781,91.836 313.585,91.961 312.677,93.042 C311.03,95.002 308.559,97.142 306.667,98.246 C304.79,99.342 304.593,99.444 304.167,99.542 C303.938,99.595 303.337,99.788 302.833,99.971 C302.329,100.155 301.467,100.426 300.917,100.575 C300.367,100.723 299.686,100.917 299.405,101.005 C299.123,101.094 298.612,101.167 298.269,101.167 C297.926,101.167 297.502,101.243 297.327,101.337 C296.797,101.621 290.159,101.565 288.446,101.263 C285.559,100.753 282.626,99.676 280.91,98.495 C280.514,98.223 280.148,98 280.098,98 C279.809,98 277.032,95.639 275.75,94.302 C273.535,91.994 272.578,90.634 270.551,86.917 C270.241,86.348 269.477,84.477 269,83.119 C268.749,82.406 268.497,81.774 268.439,81.716 C268.381,81.659 268.333,81.339 268.333,81.006 C268.333,80.672 268.269,80.329 268.189,80.242 C266.847,78.765 266.35,68.339 267.362,62.875 L267.524,62 L291.428,62 L315.333,62 L315.333,60.358 C315.333,59.455 315.267,58.499 315.187,58.233 C315.106,57.967 314.908,57.037 314.747,56.167 C314.585,55.296 314.389,54.512 314.31,54.425 C314.231,54.338 314.167,54.146 314.167,53.998 C314.167,53.85 313.979,53.34 313.75,52.865 C313.521,52.39 313.333,51.908 313.333,51.792 C313.333,51.677 313.07,51.148 312.75,50.617 C312.429,50.085 312.167,49.616 312.167,49.573 C312.167,48.808 306.481,42.333 305.809,42.333 C305.711,42.333 305.424,42.165 305.17,41.958 C304.245,41.207 301.696,39.771 299.917,38.999 C296.918,37.699 290.818,36.527 287.934,36.697 C287.65,36.714 286.629,36.784 285.667,36.853 M156.926,37.652 C156.874,37.735 157.149,37.857 157.535,37.923 C160.074,38.352 165.398,42.195 166.531,44.417 C166.718,44.783 167.008,45.233 167.175,45.417 C168.598,46.977 169.569,54.623 168.487,55.742 C168.402,55.829 168.333,56.039 168.333,56.208 C168.333,56.822 166.212,59.667 165.754,59.667 C165.689,59.667 165.343,59.918 164.983,60.226 C164.315,60.797 160.848,62.6 159.5,63.076 C157.852,63.658 156.871,63.976 155.917,64.24 C155.367,64.391 154.804,64.561 154.667,64.616 C154.231,64.79 150.984,65.668 149.167,66.102 C147.549,66.489 146.843,66.691 144.583,67.418 C144.125,67.566 143.45,67.764 143.083,67.858 C142.717,67.952 142.267,68.095 142.083,68.176 C141.9,68.258 141.45,68.431 141.083,68.561 C132.845,71.485 127.636,76.062 126.332,81.523 C126.149,82.29 125.924,83.188 125.833,83.519 C125.192,85.843 126.111,92.605 127.257,94 C127.37,94.138 127.664,94.639 127.91,95.115 C128.156,95.59 128.464,96.068 128.595,96.177 C128.726,96.285 128.833,96.46 128.833,96.566 C128.833,97.089 132.454,100.215 134.391,101.364 C135.814,102.207 139.47,103.502 140.425,103.501 C140.705,103.5 141.013,103.58 141.11,103.677 C141.217,103.783 142.607,103.889 144.602,103.943 C149.659,104.078 152.114,103.661 157.5,101.754 C158.603,101.364 160.94,100.19 161.173,99.909 C161.283,99.776 161.486,99.667 161.623,99.667 C161.76,99.667 162.124,99.46 162.43,99.208 C163.455,98.366 163.968,98 164.125,98 C164.4,98 167.739,94.446 168.312,93.542 C169.085,92.325 169.167,92.504 169.167,95.418 C169.167,100.74 170.361,102.727 173.917,103.321 C175.134,103.524 178.362,103.335 178.962,103.026 C179.12,102.944 179.55,102.823 179.917,102.757 C180.283,102.691 180.658,102.576 180.75,102.501 C180.842,102.427 181.247,102.278 181.651,102.169 C182.055,102.061 182.6,101.759 182.861,101.498 C183.122,101.237 183.467,100.99 183.626,100.95 C184.063,100.841 183.068,100.971 181.75,101.196 C179.501,101.579 177.962,101.093 177.464,99.843 C176.739,98.018 176.771,99.005 176.66,75.167 C176.554,52.22 176.527,51.305 175.958,50.736 C175.89,50.667 175.833,50.472 175.833,50.302 C175.833,49.511 173.739,46.049 172.685,45.099 C172.492,44.925 172.33,44.7 172.327,44.599 C172.323,44.499 171.967,44.133 171.535,43.787 C171.103,43.441 170.344,42.784 169.848,42.329 C169.352,41.873 168.88,41.5 168.798,41.5 C168.717,41.5 168.261,41.252 167.784,40.948 C166.31,40.01 164.375,39.146 162.417,38.549 C161.958,38.41 161.453,38.229 161.294,38.148 C161.135,38.066 160.835,37.999 160.627,37.998 C160.42,37.997 159.882,37.885 159.432,37.748 C158.523,37.472 157.071,37.417 156.926,37.652 M129.75,38.261 C124.978,38.688 121.321,39.791 117.833,41.854 C117.696,41.936 117.471,42.053 117.333,42.115 C117.196,42.177 116.674,42.532 116.174,42.905 C115.674,43.278 115.062,43.696 114.814,43.833 C114.132,44.211 111.362,46.73 110.667,47.605 C110.529,47.778 110.073,48.331 109.654,48.835 C108.879,49.764 107.833,51.267 107.833,51.451 C107.833,51.694 106.963,52.664 106.822,52.577 C106.73,52.519 106.667,49.681 106.667,45.583 C106.667,41.79 106.603,38.647 106.526,38.599 C106.448,38.551 105.979,38.582 105.484,38.669 C104.685,38.808 98.101,39.746 96.451,39.956 C95.756,40.044 95.71,40.3 96.331,40.612 C97.226,41.062 98.178,42.045 98.589,42.945 C99.506,44.949 99.494,44.584 99.497,70.289 C99.5,93.464 99.455,95.789 98.982,96.706 C98.9,96.865 98.833,97.079 98.833,97.181 C98.833,98.101 96.857,100.959 95.833,101.518 C95.513,101.693 95.138,101.911 95,102.002 C94.862,102.093 94.528,102.246 94.256,102.343 C93.864,102.483 93.812,102.551 94.006,102.674 C94.274,102.843 111.503,102.895 112.125,102.728 C112.611,102.598 112.61,102.333 112.123,102.333 C111.03,102.333 108.827,100.231 107.985,98.385 C106.672,95.502 106.676,95.581 106.671,74.06 L106.667,55.536 L107.665,53.56 C109.257,50.408 112.23,46.833 114.583,45.24 C115.042,44.929 115.717,44.452 116.083,44.178 C116.45,43.905 117.125,43.484 117.583,43.243 C118.58,42.719 118.938,42.511 119.532,42.11 C120.62,41.377 124.401,40.115 127.667,39.396 C129.459,39.001 134.681,39.015 136.083,39.419 C136.633,39.577 137.44,39.787 137.875,39.886 C138.9,40.119 138.876,40.472 137.817,40.724 C135.705,41.227 134.159,45.224 135.237,47.396 C137.8,52.56 145.73,50.094 144.688,44.458 C144.3,42.359 140.768,39.167 138.833,39.167 C138.661,39.167 138.479,39.1 138.429,39.019 C138.379,38.939 137.905,38.819 137.377,38.753 C136.849,38.688 136.342,38.576 136.25,38.505 C136.158,38.434 135.269,38.323 134.273,38.259 C133.277,38.195 132.377,38.121 132.273,38.097 C132.169,38.072 131.033,38.145 129.75,38.261 M363.451,38.512 C364.688,38.793 366.053,39.184 366.373,39.35 C366.532,39.432 366.766,39.5 366.893,39.5 C367.18,39.5 371.368,41.619 372.18,42.175 C374.268,43.604 376.015,45.183 377.292,46.794 L377.833,47.478 L377.833,69.119 L377.833,90.761 L377.02,91.839 C375.918,93.3 372.789,96.415 371.684,97.151 C371.19,97.481 370.617,97.862 370.411,98 C370.204,98.138 369.686,98.494 369.26,98.792 C368.833,99.09 368.384,99.333 368.262,99.333 C368.14,99.333 367.947,99.446 367.833,99.583 C367.719,99.721 367.547,99.833 367.451,99.833 C367.355,99.833 367.158,99.938 367.013,100.067 C366.868,100.195 366.488,100.378 366.167,100.473 C365.415,100.696 364.177,101.133 363.75,101.326 C363.567,101.409 363.192,101.517 362.917,101.565 C362.642,101.612 362.042,101.735 361.583,101.837 C359.382,102.326 355.514,102.397 353.417,101.986 C351.311,101.574 350.739,101.437 350.592,101.307 C350.505,101.23 350.28,101.166 350.092,101.166 C349.734,101.165 346.465,99.56 345.59,98.956 C344.634,98.297 342.25,96.264 341.75,95.683 C339.719,93.319 339,92.377 339,92.077 C339,91.965 338.89,91.783 338.756,91.672 C337.58,90.696 335.065,84.042 334.345,80 C334.157,78.946 333.927,77.708 333.834,77.25 C333.199,74.125 333.46,63.584 334.193,62.758 C334.27,62.671 334.333,62.334 334.333,62.008 C334.332,61.332 334.73,59.513 335.172,58.167 C335.338,57.662 335.524,56.987 335.586,56.667 C335.648,56.346 335.842,55.835 336.016,55.532 C336.191,55.229 336.333,54.871 336.333,54.738 C336.333,54.425 338.091,50.915 338.579,50.254 C338.783,49.977 339,49.637 339.061,49.5 C339.18,49.227 339.563,48.634 340.083,47.913 C341.169,46.408 344.554,43.183 346.581,41.721 C347.175,41.293 350.235,39.764 350.833,39.596 C351.063,39.532 351.4,39.415 351.583,39.337 C352.287,39.037 355.025,38.456 356.583,38.275 C357.683,38.148 362.592,38.317 363.451,38.512 M293.693,39.486 C294.578,39.57 295.441,39.711 295.61,39.799 C295.779,39.887 296.647,40.125 297.54,40.327 C298.433,40.528 299.203,40.757 299.251,40.834 C299.299,40.912 299.618,41.063 299.961,41.17 C300.905,41.465 303.356,42.678 303.888,43.114 C304.147,43.326 304.447,43.503 304.554,43.507 C304.662,43.511 305.021,43.717 305.353,43.965 C307.586,45.637 308.374,46.354 309.477,47.714 C310.161,48.559 310.765,49.288 310.819,49.333 C311.188,49.649 312.068,51.455 312.402,52.583 C312.564,53.133 312.765,53.814 312.849,54.095 C313.584,56.582 312.351,59.544 310.333,60.137 C308.383,60.711 307.941,60.724 287.941,60.78 L267.966,60.836 L268.046,60.126 C268.146,59.245 268.641,57.471 268.847,57.258 C268.931,57.171 269,56.994 269,56.864 C269,56.734 269.262,56.068 269.583,55.383 C269.904,54.697 270.167,54.066 270.167,53.979 C270.167,53.75 270.748,52.645 271.309,51.805 C271.574,51.408 271.84,50.924 271.9,50.73 C271.96,50.536 272.157,50.243 272.338,50.079 C272.519,49.916 272.667,49.713 272.667,49.63 C272.667,48.835 278.14,43.524 279.839,42.669 C280.248,42.464 280.808,42.133 281.083,41.935 C282.209,41.124 284.553,40.187 286.5,39.77 C289.306,39.17 290.041,39.141 293.693,39.486 M169.129,74.2 L169.083,91.083 L168.532,92.083 C167.755,93.494 165.034,96.195 163.481,97.098 C163.309,97.198 163.037,97.396 162.876,97.538 C162.715,97.68 162.232,97.954 161.802,98.148 C161.372,98.341 160.975,98.572 160.92,98.662 C160.824,98.817 160.607,98.925 159.083,99.58 C158.717,99.738 158.046,100.047 157.592,100.267 C157.139,100.487 156.689,100.667 156.592,100.668 C156.496,100.668 156.221,100.771 155.982,100.895 C155.531,101.131 153.48,101.791 151.75,102.258 C148.614,103.104 143.681,102.465 141.225,100.893 C140.743,100.585 140.276,100.333 140.186,100.333 C140.009,100.333 137.688,98.076 137.417,97.64 C137.325,97.493 136.963,96.954 136.613,96.442 C136.262,95.931 135.831,95.135 135.655,94.673 C135.478,94.211 135.193,93.468 135.022,93.021 C134.069,90.534 133.699,81.912 134.524,81.402 C134.602,81.353 134.667,81.171 134.667,80.996 C134.667,80.469 135.236,78.833 135.784,77.785 C136.597,76.229 136.876,75.81 137.909,74.595 C138.928,73.398 140.964,71.634 141.768,71.253 C142.091,71.099 142.674,70.759 143.064,70.496 C143.716,70.056 145.838,69 146.07,69 C146.125,69 146.488,68.853 146.877,68.674 C147.724,68.284 148.57,67.981 150.636,67.329 C151.491,67.059 152.254,66.799 152.333,66.75 C152.412,66.701 153.176,66.441 154.03,66.171 C155.99,65.553 156.943,65.216 157.609,64.909 C157.897,64.776 158.22,64.667 158.326,64.667 C158.617,64.667 163.99,61.941 164.869,61.348 C165.767,60.742 167.783,58.63 168.452,57.594 C168.784,57.079 168.953,56.937 169.046,57.095 C169.116,57.218 169.154,64.915 169.129,74.2" fill="#343434"></path>
    </g>
</svg>