<?xml version="1.0" encoding="UTF-8"?>
<svg width="407px" height="90px" viewBox="0 0 407 90" version="1.1" xmlns="http://www.w3.org/2000/svg" xmlns:xlink="http://www.w3.org/1999/xlink">
    <title>path0</title>
    <g id="Page-1" stroke="none" stroke-width="1" fill="none" fill-rule="evenodd">
        <path d="M215.747505,0.133943417 C215.194575,0.217254303 214.292772,0.418311243 213.742036,0.580489769 C213.192397,0.742668295 212.56706,0.875965714 212.353128,0.875965714 C212.139197,0.875965714 211.773868,1.04258749 211.542384,1.24586605 C211.310899,1.44914461 210.940085,1.61576639 210.719571,1.61576639 C210.499057,1.61576639 210.169932,1.78238816 209.987816,1.98677754 C209.8057,2.1900561 209.572021,2.35667787 209.466701,2.35667787 C208.557219,2.35667787 204.594553,6.52666545 204.594553,7.48418524 C204.594553,7.58526912 204.435476,7.81298554 204.241292,7.99071543 C204.048205,8.16844533 203.833177,8.66053496 203.765158,9.08486508 C203.696042,9.50808438 203.532576,9.9790686 203.402023,10.1323606 C203.270373,10.2845418 203.0345,11.1176507 202.87652,11.9840839 C202.719637,12.8494063 202.510094,13.9324479 202.411357,14.3901023 C202.313716,14.8488676 202.229241,16.9805155 202.224852,19.1288256 C202.214979,23.9764084 202.430007,23.6476081 199.275892,23.6476081 C196.367523,23.6476081 196,23.8831002 196,25.7470424 C196,27.3210628 196.046078,27.3499439 198.602282,27.3499439 C201.249545,27.3499439 201.958261,27.5798819 202.125018,28.4929692 C202.433298,30.1902897 202.127212,82.0440964 201.803572,82.8672079 C201.629136,83.3126435 201.485418,83.905817 201.485418,84.1846308 C201.485418,84.4689986 201.24406,84.9988558 200.932488,85.3965264 C200.391626,86.0852298 200.179889,86.2474083 198.979679,86.8939008 C198.359827,87.2271443 198.071294,87.9458396 198.284128,88.6256564 C198.400419,88.9955568 198.524389,89 208.608782,89 L218.817145,89 L218.93563,88.5212401 C219.108969,87.8225395 218.903815,87.3682174 218.266409,87.0338631 C216.916996,86.3273868 216.12929,85.38764 215.626826,83.8813791 L215.202254,82.612832 L215.201157,55.3801694 L215.198963,28.1475068 L215.58404,27.7953794 C215.939495,27.4688007 216.393687,27.4354764 221.703572,27.3499439 C228.128094,27.2466384 227.943784,27.2877384 228.128094,25.897002 C228.221346,25.1927473 228.171977,25.0750013 227.495076,24.3896304 L226.762225,23.6476081 L220.381586,23.6476081 L214.000948,23.6476081 L213.465571,23.0455481 C212.715166,22.2013311 212.150168,21.3537817 211.996576,20.8428082 C211.925266,20.6028729 211.720111,20.1574373 211.541286,19.8519641 C211.362462,19.5464908 211.158404,19.0055255 211.088191,18.6489549 C211.017978,18.2923843 210.844638,17.6436702 210.703115,17.2071211 C210.393737,16.2551554 210.354242,11.5375376 210.646066,10.4100636 C210.751386,10.0023956 210.925823,9.25259766 211.033337,8.74384585 C211.140851,8.23509404 211.339423,7.68746381 211.474364,7.52861772 C211.610403,7.36866081 211.817752,6.95210638 211.936237,6.60331147 C212.441992,5.11149119 213.799085,3.73408453 215.896708,2.58661592 C217.29549,1.82126657 221.47867,1.85014768 222.787491,2.63549164 C224.22467,3.4963708 225.278967,4.85933691 225.520326,6.16787323 C225.59383,6.56665468 225.727675,6.9820983 225.816538,7.09206867 C225.906499,7.20203904 226.10178,7.82631529 226.249886,8.48058345 C226.948729,11.5553106 227.252621,12.2884464 228.271812,13.359269 C229.887816,15.0577002 233.481862,14.9655029 234.875158,13.1904256 C235.116516,12.8838415 235.457709,12.479506 235.633243,12.2940004 C236.169716,11.7274864 236.099503,7.62747997 235.541088,6.90878472 C235.315088,6.61775202 235.129681,6.29561659 235.129681,6.19231109 C235.129681,5.94793249 233.671657,4.15619302 233.029863,3.61189523 C232.755592,3.37973556 232.383681,3.05204607 232.202662,2.88431349 C232.02274,2.71547009 231.711169,2.52552127 231.512597,2.462205 C231.312927,2.39777791 230.964055,2.1811696 230.734764,1.98122348 C230.506571,1.78016654 230.139048,1.61576639 229.918534,1.61576639 C229.69802,1.61576639 229.339274,1.46025273 229.123148,1.2691931 C228.905926,1.07924428 228.303627,0.865968407 227.783609,0.795987263 C227.264689,0.726006118 226.545002,0.537168108 226.185159,0.377211206 C225.43585,0.0417460354 217.573052,-0.141537915 215.747505,0.133943417 M35.7130301,5.09771535 C34.904147,5.17500326 34.0091891,5.33399552 33.72448,5.45103149 C33.4397708,5.56806746 32.9222181,5.66302117 32.5757116,5.66302117 C32.2281015,5.66302117 31.4677735,5.82201344 30.8862164,6.01633731 C30.3046593,6.21066119 29.4417036,6.42154676 28.9693954,6.48558531 C28.4970871,6.54962386 28.0148472,6.71744903 27.8967701,6.8598796 C27.778693,7.00120605 27.2964531,7.17455178 26.8241449,7.24300678 C26.3518366,7.3125659 25.6753764,7.51682679 25.3222488,7.69790131 C23.5201942,8.61652328 21.1597565,9.71180331 20.9820892,9.71180331 C20.8717368,9.71180331 20.6311686,9.87742025 20.4479836,10.0794729 C20.2647986,10.2826297 20.0485079,10.4482466 19.9679507,10.4482466 C19.8344243,10.4482466 18.9295347,11.0069278 18.1040988,11.5976282 C17.927535,11.7246012 17.489436,12.0348569 17.1296872,12.2876988 C15.1113419,13.7097962 12.046856,16.4491004 10.6078608,18.1174151 C8.86650001,20.1368376 5.9697497,24.3004475 5.47757803,25.4917854 C5.34074107,25.820811 5.17079838,26.0891105 5.09686228,26.0891105 C5.0240297,26.0891105 4.86622578,26.4203444 4.74483815,26.8255538 C4.62345051,27.2307633 4.45130078,27.5619971 4.36191534,27.5619971 C4.27363343,27.5619971 4.14341761,27.8302966 4.0738956,28.1593222 C4.00437359,28.4883479 3.80132519,28.9233684 3.62255431,29.1254211 C3.44267991,29.3285778 3.23852799,29.8254287 3.16679893,30.229534 C3.09506988,30.6347434 2.92954129,31.089638 2.79932547,31.2420056 C2.66910964,31.393269 2.46054362,31.9530543 2.33694894,32.4852367 C2.21225074,33.016315 2.04561862,33.4910836 1.9661649,33.5407687 C1.8878147,33.5893497 1.76532355,34.0243702 1.69469802,34.5057634 C1.62517601,34.9882607 1.45081923,35.5635036 1.30956817,35.7854303 C1.16721358,36.0062529 0.971889844,36.8762939 0.874779739,37.7176279 C0.778773157,38.558962 0.551447229,39.5361019 0.370469305,39.8905222 C-0.164739799,40.9394295 -0.102942459,53.1133787 0.445508932,54.7044054 C0.655178478,55.3116676 0.878090311,56.4235093 0.939887651,57.1754102 C1.00168499,57.926207 1.14403958,58.6516092 1.25549549,58.7852069 C1.36695141,58.9199086 1.56668924,59.5061926 1.69911211,60.086956 C2.00478824,61.4251409 2.44619781,62.7721587 2.89864262,63.7415698 C3.09286283,64.1578204 3.25177027,64.6624 3.25177027,64.8633486 C3.25177027,65.0642971 3.41729886,65.4198215 3.61924374,65.6538934 C3.82118862,65.8868613 3.98671721,66.1838676 3.98671721,66.314153 C3.98671721,66.6575321 5.69828282,69.9687668 6.06685981,70.3364364 C6.23790602,70.5075739 6.37805356,70.7891227 6.37805356,70.9624684 C6.37805356,71.13471 6.52261519,71.40853 6.70028254,71.5708347 C6.87684637,71.7331393 7.30170308,72.3315685 7.64269198,72.9001866 C7.98478439,73.4688048 8.33680852,73.9347404 8.42509044,73.9347404 C8.51337235,73.9347404 8.58510141,74.0352147 8.58510141,74.1577713 C8.58510141,74.2803278 8.75173352,74.5497314 8.95588545,74.7562005 C9.16003737,74.9615655 9.76035439,75.670406 10.2900459,76.3306655 C11.5028187,77.8433002 13.3556353,79.6187138 15.4821259,81.3046943 C16.3925332,82.0267842 17.2256937,82.729 17.3327356,82.8648059 C17.4397774,82.9995076 17.7531782,83.1673328 18.0268521,83.2357878 C18.3016296,83.3053469 18.6095127,83.5173366 18.7121405,83.7083482 C18.8136647,83.8993597 19.0553364,84.0550396 19.2484531,84.0550396 C19.4404663,84.0550396 19.6545499,84.146681 19.7240719,84.2581964 C19.7924904,84.3697118 20.1323758,84.5794933 20.4788823,84.7241321 C20.8242853,84.8687708 21.1542389,85.1083634 21.2116222,85.2574186 C21.2679019,85.4064738 21.5128842,85.5279263 21.7545559,85.5279263 C21.9973312,85.5279263 22.3526659,85.6847103 22.5446791,85.876826 C22.7366922,86.0689416 23.1703771,86.2864519 23.5102625,86.3604274 C23.8490443,86.4332989 24.4162556,86.6441844 24.7704868,86.8274672 C25.7912465,87.3574414 27.2887284,87.9194349 27.6760653,87.9194349 C27.8713891,87.9194349 28.2289308,88.0729066 28.469499,88.2595017 C28.7464835,88.4748037 29.3655605,88.6415248 30.1446483,88.712188 C30.8255226,88.7740183 31.5704013,88.9418435 31.7999342,89.0831699 C33.7785526,90.3032147 48.4830089,90.3065271 50.4704555,89.0875864 C50.6966779,88.9484681 51.3996227,88.780643 52.0341489,88.7155003 C52.6675717,88.6492535 53.3925869,88.4516173 53.6452939,88.2749593 C53.8991044,88.0983012 54.4365205,87.8984567 54.8415138,87.8288976 C55.2454036,87.7604426 55.7011589,87.598138 55.8523417,87.4689568 C56.004628,87.3397756 56.3765156,87.1741587 56.6799847,87.1023913 C56.9834537,87.0295199 57.3564448,86.8639029 57.5076276,86.7336176 C57.6599139,86.6033323 58.0130416,86.4421318 58.2944402,86.375885 C58.5747352,86.3085341 58.9686933,86.0910239 59.1684311,85.8911794 C59.3681689,85.691335 59.6915015,85.5279263 59.8879287,85.5279263 C60.084356,85.5279263 60.2973361,85.4440137 60.360237,85.3413312 C60.4242413,85.2386487 60.7806796,84.988015 61.1525671,84.7837542 C61.9724854,84.3354843 62.4536218,84.0186039 64.6308745,82.4916157 C68.2360872,79.962093 72.7737776,74.3973638 72.9194428,72.3238397 L73,71.1744581 L72.3599561,71.1744581 C71.9980003,71.1744581 71.5157603,71.3345545 71.2520181,71.5421277 C70.994897,71.7441804 70.7278442,71.9097973 70.6594258,71.9097973 C70.5899037,71.9097973 70.1804964,72.2620093 69.7490185,72.6926134 C68.7205342,73.7183343 67.5276249,74.6943701 66.8842704,75.0388534 C66.5995612,75.1901169 65.9837949,75.5831811 65.5147972,75.9122067 C65.0457995,76.2412324 64.5944583,76.5106359 64.5127975,76.5106359 C64.4300332,76.5106359 64.1585663,76.6707323 63.9091699,76.8672644 C63.6597735,77.0637965 63.2415379,77.2779944 62.9788992,77.3442412 C62.7162605,77.4093839 62.3576153,77.6224777 62.1832585,77.8156974 C62.0077982,78.0089172 61.7076397,78.1668053 61.51673,78.1668053 C61.3247169,78.1668053 60.8612368,78.3246935 60.4871422,78.5168091 C59.2037439,79.1781728 58.3463058,79.4873244 57.3509272,79.649629 C56.8024758,79.7390621 56.2165046,79.9355943 56.0498725,80.0868577 C55.8457206,80.2723487 55.1471899,80.3993217 53.9145537,80.4766096 C52.9070364,80.539544 51.6556402,80.7084733 51.1347769,80.8509039 C49.9087619,81.1876583 46.6301923,81.1887624 45.4483181,80.8542162 C44.9495253,80.7128898 43.7168891,80.5439605 42.7093718,80.4799219 C41.4535615,80.3993217 40.7793084,80.2734528 40.5652248,80.0791289 C40.393075,79.923449 39.8104144,79.7313334 39.2707912,79.6518372 C38.7300645,79.5723411 38.040362,79.3724967 37.736893,79.2068797 C37.4334239,79.0401587 37.0604328,78.9043528 36.90925,78.9032487 C36.7569637,78.9010404 36.3850761,78.7354235 36.0816071,78.5344749 C35.778138,78.3335264 35.3963187,78.1690136 35.2318936,78.1679094 C35.0685721,78.1668053 34.7242726,78.0000843 34.466048,77.7969275 C34.2078234,77.5937707 33.7454469,77.3773646 33.4386673,77.3155343 C33.1318876,77.254808 32.7401366,77.0483389 32.5679869,76.8573274 C32.3947336,76.6663158 32.1872711,76.5106359 32.1067139,76.5106359 C31.8694562,76.5106359 30.1347166,75.3248186 29.3799063,74.6479974 C29.1967213,74.4834846 28.9660848,74.3178676 28.8678712,74.2792237 C28.6383382,74.1908946 27.0614025,72.8206905 25.8232487,71.6337691 C24.663445,70.5219274 22.3791505,67.7936643 22.3791505,67.5187402 C22.3791505,67.4116412 22.2191395,67.2371914 22.0238158,67.1323006 C21.828492,67.0274099 21.6110978,66.7635269 21.5426793,66.5449126 C21.4731573,66.3262982 21.0946486,65.6837045 20.7028976,65.1183987 C20.3100431,64.5519887 19.9889177,63.9414143 19.9889177,63.7614439 C19.9878141,63.5814734 19.86753,63.3871496 19.7207613,63.3308398 C19.5739927,63.2745301 19.3565984,62.9256304 19.2385214,62.5546484 C19.1193408,62.1847706 18.9184994,61.7563748 18.7915942,61.6051113 C18.6646889,61.4527437 18.4980568,61.1226139 18.4219137,60.868668 C18.3457705,60.6158261 18.1703102,60.2459483 18.0323697,60.0461038 C17.8944292,59.8462594 17.7785592,59.5150255 17.7752487,59.3096605 C17.7719381,59.1042955 17.5655791,58.522428 17.3172862,58.0167443 C17.0689933,57.5110605 16.8637379,56.8066365 16.8615309,56.4522162 C16.8604273,56.097796 16.6948987,55.560093 16.4940574,55.2564619 C16.293216,54.9528309 16.1276874,54.5056651 16.1265839,54.2638644 C16.1265839,54.0209595 15.9643659,53.1100664 15.7668351,52.2389213 C15.5704079,51.3688803 15.3298396,50.1587725 15.2338331,49.5515104 C15.136723,48.9442483 14.9689873,48.1161636 14.860842,47.7120582 C14.5430271,46.5284492 14.5926857,36.5262901 14.9215358,35.2620808 C15.0683045,34.697879 15.2735599,33.5838291 15.3772912,32.7855554 C15.4821259,31.9872818 15.692899,30.9273334 15.8462888,30.4304825 C15.9996787,29.9336317 16.1254804,29.310912 16.1254804,29.0459249 C16.1254804,28.7809378 16.2656279,28.3635831 16.4377777,28.1184701 C16.6088239,27.873357 16.8096652,27.2274509 16.8836013,26.680915 C16.9575374,26.1354832 17.1473435,25.5458869 17.3051475,25.3714371 C17.4640549,25.1958831 17.6461364,24.7685914 17.7123478,24.4207958 C17.7774557,24.0741044 17.9330526,23.6644785 18.0577508,23.513215 C18.1813455,23.3608474 18.3413564,22.995386 18.411982,22.6994838 C18.481504,22.4035815 18.7000017,21.958624 18.896429,21.7090945 C19.0917527,21.4595649 19.2528672,21.1040406 19.2528672,20.9196537 C19.2528672,20.7341627 19.4117746,20.4349481 19.6048913,20.2538736 C19.7991115,20.0727991 20.0176093,19.690776 20.0893383,19.4037067 C20.1610674,19.1177414 20.3276995,18.8417132 20.4590188,18.790924 C20.5903382,18.7401348 20.7823514,18.4574819 20.8849791,18.1615796 C20.9887103,17.8667815 21.1597565,17.6249807 21.2656948,17.6249807 C21.3727367,17.6249807 21.459915,17.5211941 21.459915,17.3942211 C21.459915,17.2683522 21.6464106,16.9448472 21.8737365,16.6765477 C22.1010625,16.4082483 22.6186152,15.7921532 23.0225049,15.3063436 C23.4274982,14.8205339 24.0476787,14.147025 24.4019098,13.8091664 C26.3661824,11.937695 27.3096954,11.1184432 27.7963494,10.8667054 C28.0943009,10.7110255 28.4518426,10.4703289 28.5908867,10.3323148 C28.7288271,10.1931965 28.9451178,10.0794729 29.069816,10.0794729 C29.1945142,10.0794729 29.577437,9.8730038 29.9195295,9.62016193 C30.2627254,9.36621596 30.6820645,9.15974684 30.8531107,9.15974684 C31.0230534,9.15974684 31.2636216,9.0371903 31.3872163,8.88813506 C31.510811,8.73907981 31.9147007,8.56352586 32.2832777,8.49727908 C32.6529582,8.4310323 33.080022,8.26762359 33.2334118,8.13513004 C33.3868016,8.00153237 34.1548543,7.81272906 34.9416668,7.71556712 C35.7273759,7.61730107 36.5042567,7.42628953 36.6675783,7.29048364 C37.2138226,6.83558911 43.3284487,6.83558911 44.6074329,7.29048364 C45.1779548,7.49364042 46.1380206,7.71004656 46.7405447,7.77187688 C47.3430687,7.8337072 47.9709738,8.00484471 48.1342954,8.15389996 C48.2987204,8.30185109 48.5392887,8.42330351 48.6695045,8.42330351 C49.1705043,8.42330351 52.358585,10.3400436 52.358585,10.6414664 C52.358585,10.7375242 52.4468669,10.8159162 52.5561158,10.8159162 C52.7481289,10.8159162 53.8295824,11.8029932 53.8295824,11.9785472 C53.8295824,12.026024 54.090014,12.3429044 54.4067254,12.6829712 C54.9915931,13.306795 55.7430928,14.3899298 56.1778813,15.232368 C56.3080971,15.4852098 56.535423,15.8992522 56.6832952,16.1520941 C56.8300639,16.40604 56.9525551,16.7957919 56.9536586,17.0199268 C56.9547621,17.2429576 57.1092555,17.5741915 57.2968545,17.755266 C57.4833501,17.9363406 57.7272289,18.4155256 57.8375813,18.820735 C58.169742,20.0418839 58.6266009,21.3690277 58.8815149,21.8570456 C59.0139378,22.1098875 59.1816734,22.6829221 59.2556095,23.1300878 C59.3295456,23.5772536 59.5458363,24.197765 59.7356424,24.510229 C59.9254485,24.8215888 60.0821489,25.3361055 60.0821489,25.6529859 C60.0821489,25.9698663 60.2068471,26.3320153 60.3591334,26.4578842 C60.5103162,26.5837531 60.6350144,26.7802852 60.6350144,26.8940088 C60.640532,28.2951281 63.3794784,31.6361739 64.7301917,31.8901199 C65.1009757,31.959679 65.4993479,32.1319206 65.6163214,32.273247 C65.9153764,32.634292 68.7801245,32.634292 69.0791795,32.273247 C69.196153,32.1319206 69.5614194,31.9663036 69.8913731,31.9044733 C70.6461835,31.7620427 72.0178637,30.3697563 72.5795574,29.1717938 C73.1246982,28.0113711 73.0982136,22.8308732 72.5431411,22.0458489 C72.3665773,21.7963194 72.2220156,21.4805431 72.2220156,21.3447372 C72.2220156,21.0079828 71.3193331,19.1055962 70.9044081,18.5656849 C70.719016,18.3249883 70.5667297,18.0180449 70.5667297,17.8844473 C70.5667297,17.7508496 70.3802342,17.4461144 70.1529083,17.207626 C69.9244788,16.9691376 69.2546398,16.1819051 68.663151,15.4587111 C67.6688759,14.2419787 65.1009757,11.9608814 63.5770092,10.9395769 C61.8224062,9.76480073 61.4229305,9.52741645 61.1911905,9.52741645 C61.0521465,9.52741645 60.7850937,9.38719411 60.5952876,9.2160566 C60.4054814,9.0449191 59.9651754,8.79649368 59.6153583,8.66400013 C58.1211869,8.09869431 57.7592311,7.94080616 57.3244426,7.66036147 C57.0717357,7.49695276 56.4559693,7.31146179 55.95828,7.24852735 C55.4594872,7.18559291 54.9077252,7.00341428 54.7311614,6.8433179 C54.5523905,6.68211741 53.8207542,6.47896063 53.0836002,6.38621515 C52.3541709,6.29457377 51.6589508,6.13778974 51.5397702,6.03952368 C51.4205896,5.94015352 50.6249489,5.78005714 49.7719249,5.68289521 C48.9177974,5.58573327 47.9720774,5.41128342 47.6686083,5.29535157 C47.0009763,5.04030148 37.8803511,4.89014212 35.7130301,5.09771535 M401.144405,5.43317866 C400.993924,5.56008595 400.664403,5.72451366 400.411771,5.79955449 C400.160236,5.87349178 399.830716,6.04012657 399.680234,6.1681374 C399.528655,6.29725177 399.117852,6.46388656 398.767462,6.53892739 C398.415973,6.61396822 398.045811,6.7883278 397.94366,6.92516697 C397.841508,7.06310967 397.366998,7.24850467 396.890291,7.336788 C396.412486,7.42617487 395.886351,7.61156987 395.720492,7.75061612 C395.430514,7.9911882 394.891198,8.17768674 393.089818,8.65883089 C392.636177,8.78022047 391.926609,9.03403505 391.51361,9.22384422 C391.099512,9.41475692 390.399829,9.57256338 389.957173,9.575874 C389.483761,9.57918463 388.777488,9.76678671 388.238172,10.0338438 C387.735104,10.2821407 387.158443,10.4896065 386.956336,10.4940207 C385.518527,10.5238163 385.538298,13.2484606 386.976108,13.2484606 C387.38691,13.2484606 388.703895,14.4138006 388.812637,14.8739774 C388.876345,15.1432416 389.060876,15.5162387 389.22344,15.7038408 C389.691359,16.2423691 389.775936,34.0071825 389.31241,34.3481769 C388.953233,34.6119233 388.512773,34.3603158 388.512773,33.8913106 C388.512773,32.6100988 382.44959,25.9391895 381.285283,25.9391895 C381.16336,25.9391895 380.915121,25.7736583 380.732786,25.5706066 C380.550451,25.3686585 380.279146,25.2031273 380.128665,25.2031273 C379.879327,25.2031273 379.508067,25.049735 377.437578,24.0874467 C377.034464,23.8998446 376.210662,23.6956894 375.60654,23.6327875 C375.002419,23.5698856 374.302736,23.3800765 374.050104,23.2112346 C373.354815,22.7444365 363.751479,22.7488506 363.066076,23.2167523 C362.811246,23.3900083 362.041266,23.5842317 361.327304,23.6537548 C360.60126,23.7243814 359.798327,23.9274331 359.475397,24.12276 C359.161254,24.3125691 358.769124,24.467065 358.604363,24.467065 C358.439603,24.467065 357.998045,24.6325962 357.622391,24.8356479 C357.246738,25.037596 356.827148,25.2031273 356.690946,25.2031273 C356.553645,25.2031273 356.232912,25.3686585 355.976984,25.5706066 C355.721056,25.7736583 355.370666,25.9391895 355.198216,25.9391895 C355.025767,25.9391895 354.737986,26.1025137 354.557848,26.3022547 C354.37771,26.5019958 354.058074,26.720497 353.847181,26.7878131 C353.413312,26.9257558 352.3896,27.6121587 352.295138,27.8284528 C352.259989,27.9057007 351.988683,28.0966135 351.689918,28.2511093 C351.045155,28.5865859 350.927626,28.6881118 349.153706,30.4504678 C347.766423,31.8276878 346.224266,33.6904661 346.224266,33.9873188 C346.224266,34.0767056 346.018864,34.3294167 345.766232,34.5490215 C345.514697,34.7686262 345.309296,35.0610648 345.309296,35.1979039 C345.309296,35.3347431 345.144536,35.6371135 344.94243,35.8710644 C344.741422,36.1039116 344.576661,36.3963502 344.576661,36.5199468 C344.576661,36.6435435 344.461329,36.8410775 344.319635,36.9591564 C344.17904,37.0772354 344.008787,37.3906412 343.942883,37.6565947 C343.87588,37.9225483 343.661692,38.3441012 343.467275,38.5935016 C343.271759,38.842902 343.11249,39.1838964 343.11249,39.3516347 C343.11249,39.5182695 342.955419,39.9652039 342.763198,40.3437186 C342.570978,40.7222334 342.31505,41.4428461 342.195324,41.9460611 C342.075598,42.4492761 341.911936,42.9006246 341.832851,42.950284 C341.754865,42.9988398 341.632942,43.4336353 341.562644,43.9147794 C341.493445,44.3970271 341.324291,44.9653511 341.188089,45.1783346 C341.052985,45.3913181 340.855273,46.4893421 340.750924,47.6171616 C340.645478,48.7460847 340.454356,49.8540406 340.325843,50.0813701 C339.886481,50.8538493 339.893072,59.5111335 340.335728,61.3231489 C340.535638,62.1441839 340.747629,63.593134 340.806943,64.5432834 C340.866257,65.4945363 340.998065,66.3729555 341.100217,66.4954486 C341.20127,66.6190452 341.370424,67.2061294 341.47587,67.8020419 C341.581317,68.3979544 341.777931,69.1329131 341.913035,69.4363871 C342.048138,69.739861 342.215095,70.3357735 342.283196,70.7595335 C342.352396,71.1832935 342.523747,71.6269172 342.665441,71.7449962 C342.806036,71.8619716 342.976289,72.3707043 343.042193,72.8739193 C343.109195,73.3782378 343.271759,73.8317934 343.403567,73.8825564 C343.535376,73.9333193 343.740777,74.2787278 343.858306,74.6484143 C343.976933,75.0192043 344.176843,75.4462749 344.303159,75.5985636 C344.429475,75.7497488 344.594236,76.0741901 344.668927,76.3202799 C344.743619,76.5652661 344.878722,76.854394 344.968791,76.9636446 C345.303804,77.3675409 346.217675,78.8220088 346.22097,78.9544338 C346.223167,79.0305781 346.368156,79.2413546 346.544999,79.423439 C346.720744,79.6055233 347.048068,79.9994877 347.271043,80.2974439 C348.718738,82.2341595 349.194347,82.7219249 351.249458,84.378341 C352.161133,85.1121962 353.029969,85.8272911 353.18045,85.9663374 C353.33203,86.1053836 353.640681,86.2764326 353.865854,86.3459557 C354.092125,86.4165824 354.381005,86.5721817 354.507321,86.6913642 C354.840137,87.0069772 356.739276,87.9207096 357.061108,87.9207096 C357.211589,87.9207096 357.474107,88.0752055 357.643261,88.2639111 C357.827793,88.4680663 358.316582,88.6501507 358.853701,88.7141561 C359.349081,88.7726438 359.944415,88.9403821 360.175079,89.0871532 C362.080808,90.2900136 374.096237,90.3098773 375.515373,89.1125346 C375.665854,88.9845238 376.160135,88.8200961 376.613776,88.7450552 C377.066318,88.671118 377.634192,88.4548238 377.873644,88.2650146 C378.114194,88.076309 378.433829,87.9207096 378.58431,87.9207096 C378.883076,87.9207096 379.645367,87.4914319 381.16336,86.4673453 C381.702676,86.1031765 382.285928,85.7224547 382.459475,85.6209288 C382.973528,85.3185584 385.872213,82.3423066 386.132534,81.84792 C386.264343,81.597416 386.648784,81.0522664 386.984895,80.6373348 C387.322105,80.2224031 387.597804,79.8008502 387.597804,79.7004279 C387.597804,79.6000056 387.757072,79.3715725 387.953686,79.1939023 C388.149202,79.0162321 388.360095,78.6366138 388.422704,78.3507965 C388.578677,77.636805 388.975201,77.3200886 389.336575,77.6213555 C389.56724,77.8144752 389.611176,78.6046111 389.611176,82.6159849 C389.611176,86.3614053 389.668293,87.5179169 389.875891,88.0189248 L390.141705,88.6567719 L393.766434,88.6490471 C396.60251,88.6424259 397.550431,88.5784205 398.123798,88.353298 C398.662015,88.1425215 399.886734,88.0343744 402.753565,87.9471946 C406.80118,87.8247015 406.991203,87.7827669 407,87.0069772 C407.003286,86.6836395 406.135548,85.8979178 405.773075,85.8979178 C405.250235,85.8979178 404.035401,84.6906432 403.555399,83.6941451 L403.06661,82.6788868 L403.022674,44.5151061 C402.97764,5.19260658 402.98423,5.74327386 402.504228,5.25992262 C402.19997,4.95424159 402.129673,4.94099909 401.693607,5.10211617 C401.543126,5.15729325 401.294887,5.30737491 401.144405,5.43317866 Z M253.074842,11.8718559 C252.85054,12.3500678 252.611731,13.0519595 252.542543,13.431003 C252.474472,13.8111484 252.260213,14.3202127 252.067157,14.5626242 C251.874102,14.8050358 251.716756,15.1642457 251.716756,15.3625824 C251.716756,15.5598172 251.549366,15.9322496 251.344035,16.1889854 C251.13982,16.4457213 250.971315,16.7255965 250.969083,16.8104405 C250.956808,17.3723946 247.073373,21.8316654 246.595755,21.8316654 C246.514292,21.8316654 246.314541,21.9572787 246.152731,22.1115406 C245.632708,22.6051787 244.546908,23.2398562 243.985596,23.3786919 C243.685411,23.4525172 243.284792,23.650854 243.095084,23.8205421 C242.814986,24.0695649 242.209036,24.1444921 239.841034,24.2194193 C236.118293,24.3362176 236,24.3990242 236,26.2490651 C236,27.8974638 235.977686,27.8853432 239.108984,27.8886488 C242.889753,27.8930563 242.416599,24.2712072 242.417715,53.2239624 C242.418831,68.663375 242.486903,77.9918125 242.600727,78.3995047 C242.701161,78.7554089 242.862971,79.8098992 242.961173,80.7420818 C243.073882,81.8153039 243.242387,82.5414367 243.422052,82.717736 C243.577166,82.8719979 243.759062,83.2851995 243.826018,83.6366962 C243.892974,83.9870911 244.022422,84.3209579 244.115044,84.3771534 C244.20655,84.4333488 244.439779,84.7848455 244.632835,85.1583797 C245.08925,86.0409781 246.201832,87.1858218 247.253038,87.8535555 C247.7128,88.1455512 248.257374,88.522391 248.461589,88.6909772 C248.665804,88.8595635 249.208146,89.0534927 249.665677,89.1229106 C250.123208,89.1912266 250.625376,89.357609 250.781607,89.4920373 C251.563873,90.1685859 259.697883,90.1696878 260.770292,89.4931391 C260.993477,89.3532015 261.536935,89.1835135 261.978843,89.1185031 C262.420751,89.0523908 262.949702,88.8584616 263.155033,88.6876716 C263.359248,88.5157798 263.945111,88.1124951 264.456207,87.7907489 C266.554154,86.4707077 267.897733,84.8002717 267.897733,83.5132867 C267.897733,82.4147216 267.612055,82.2384223 266.718196,82.7838483 C266.370026,82.9954075 265.962712,83.169503 265.809829,83.169503 C265.658063,83.169503 265.307661,83.3755529 265.032026,83.6278813 C264.756392,83.8813115 264.394831,84.0873614 264.229673,84.0873614 C264.0634,84.0873614 263.76991,84.2284008 263.576854,84.4002926 C262.003394,85.8073816 256.738438,84.0532034 256.738438,82.1227259 C256.738438,81.9838901 256.591136,81.6500233 256.412587,81.380065 C255.91823,80.6352004 255.805521,28.7690435 256.297646,28.2324325 C256.587788,27.9150937 256.991754,27.8919544 262.166319,27.8919544 C268.496987,27.8919544 267.990355,28.0418088 267.990355,26.1763417 C267.990355,25.2033898 267.937907,25.0612485 267.432391,24.6612694 L266.874426,24.2205211 L261.657456,24.2194193 C257.848788,24.2194193 256.380225,24.1599183 256.217299,23.9990451 C256.053258,23.8359683 255.994113,22.2316445 255.994113,17.9211262 C255.994113,11.0487585 255.980722,10.993665 254.353697,11 C253.497779,11.0035818 253.476576,11.0179061 253.074842,11.8718559 M110.556286,23.3436462 C110.20457,23.5370306 109.635908,23.7569363 109.292958,23.83208 C108.416408,24.0265694 107.146506,24.738224 105.26521,26.0897048 C104.569448,26.5902941 103.502248,27.7826471 102.750606,28.9009615 C102.375881,29.4579086 101.966093,29.979494 101.838994,30.061268 C101.711894,30.1419369 101.607804,30.3629477 101.607804,30.5530169 C101.607804,30.7430862 101.40291,31.1442207 101.150902,31.4459004 C100.899989,31.746475 100.695096,32.1122478 100.695096,32.2592199 C100.695096,32.405087 100.437609,33.0438081 100.124242,33.6770039 C99.2082471,35.5257588 98.9869181,35.0539009 98.8554356,30.966307 C98.7973641,29.1716997 98.6560204,27.3306802 98.5420689,26.874293 C98.4270216,26.4190108 98.2451375,25.5813801 98.1366644,25.0133824 C97.930675,23.9315348 97.42885,23.6961583 96.842657,24.408918 C96.7276098,24.5492598 96.4887498,24.6641854 96.3123441,24.6641854 C96.1359383,24.6641854 95.9003654,24.7757959 95.7886053,24.9106124 C95.6768451,25.046534 95.2659622,25.2542841 94.8748016,25.3725249 C94.483641,25.4907656 94.0618012,25.7106713 93.9368928,25.8620637 C93.8130801,26.0145611 93.4734168,26.1383272 93.1830596,26.1383272 C92.8828411,26.1383272 92.5223598,26.2952448 92.3437627,26.505205 C92.1728353,26.7074298 91.74223,26.9273355 91.3872272,26.9925337 C91.0322243,27.0588369 90.4558925,27.266587 90.1052724,27.4544462 C89.7557479,27.6423053 89.3415779,27.7959078 89.1859902,27.7959078 C89.0293069,27.7959078 88.5800749,27.9616659 88.1856272,28.1638907 C87.7911796,28.3661155 87.1962211,28.5318736 86.8609406,28.5318736 C86.5267558,28.5318736 86.0304092,28.6898963 85.7586786,28.8821756 C85.4617472,29.0921358 84.7933776,29.2766798 84.0877546,29.3429831 C81.9018573,29.5507332 81.2312964,31.335395 83.0501382,32.1023023 C84.0658409,32.5299581 85.3554655,33.9289562 85.3554655,34.6030389 C85.3554655,34.9201894 85.4990006,35.446195 85.6743107,35.7699757 C85.9745291,36.3225026 85.9942515,37.8032746 85.9942515,59.3816594 C85.9942515,80.8849005 85.9734334,82.4551819 85.6743107,83.1900426 C85.4990006,83.6221186 85.3554655,84.1669101 85.3554655,84.4000765 C85.3554655,85.0874199 83.2353095,87.0853571 82.4935288,87.0964077 C82.2239896,87.1008279 82.0026606,88.0743802 82.1582483,88.5694443 C82.3226015,89.0921347 104.090632,89.1650683 104.288952,88.6434829 C104.501515,88.0865358 104.089537,87.3881418 103.33899,87.0323145 C102.939064,86.8433503 102.570913,86.6267598 102.520511,86.5505111 C102.47011,86.4753674 102.224676,86.3527065 101.972668,86.2797729 C101.214452,86.0576571 99.8240237,84.4011815 99.6815842,83.5502901 C99.6136516,83.1425253 99.44382,82.5347457 99.3046676,82.1977043 C98.9310381,81.2970855 98.9343251,44.8192609 99.3079547,43.1738359 C99.4460114,42.5660563 99.615843,41.3648629 99.6870627,40.504026 C99.7571867,39.6431891 99.9171571,38.6895277 100.043161,38.385638 C100.169165,38.0817482 100.333519,37.501595 100.408025,37.0960402 C100.482532,36.6915905 100.644694,36.2352033 100.769602,36.083811 C100.894511,35.9313136 101.093926,35.4649809 101.21226,35.0461655 C101.330594,34.6273501 101.549732,34.1820135 101.699841,34.0571424 C101.849951,33.9311663 101.972668,33.7156808 101.972668,33.5786541 C101.972668,33.1996207 104.327301,30.883428 105.259731,30.3452668 C108.366006,28.5528696 113.937579,29.3761347 115.958027,31.9277038 C116.203461,32.2382239 116.490532,32.5973664 116.595718,32.7266577 C116.700904,32.8548439 116.87731,33.2283521 116.987974,33.555448 C117.097543,33.8825439 117.33969,34.3477715 117.524861,34.5886732 C117.708937,34.83068 117.860142,35.1621961 117.860142,35.3257441 C117.859046,35.6009025 118.0486,36.0462392 119.001848,38.0209702 C119.937566,39.9603396 121.300601,40.7648187 123.455819,40.6509982 C124.549316,40.5924303 125.050045,40.4874502 125.212207,40.2819102 C125.337115,40.1249926 125.669109,39.9415537 125.949605,39.8752504 C126.230101,39.8100523 126.660706,39.5304737 126.906141,39.2553153 C127.151575,38.9790518 127.558075,38.5215596 127.811179,38.2375608 C128.063187,37.954667 128.269176,37.5988397 128.269176,37.4474473 C128.269176,37.29716 128.433529,36.8485082 128.635136,36.4517939 C128.934259,35.85838 129,35.3666311 129,33.6957898 C129,32.013898 128.93645,31.5431451 128.635136,30.9751475 C128.433529,30.596114 128.269176,30.1121005 128.269176,29.8988251 C128.269176,29.6855497 128.107014,29.361769 127.908695,29.1816452 C127.710375,29.0004164 127.496716,28.6887912 127.434262,28.4898815 C127.311545,28.0986925 127.161436,27.9097283 126.079992,26.7825735 C125.108117,25.7692392 124.9854,25.6786248 123.672766,25.0023319 C123.037267,24.675236 122.394098,24.3105682 122.242893,24.1901174 C122.092784,24.0707716 121.558088,23.9138539 121.056263,23.8420254 C120.554438,23.7701969 119.991254,23.5734974 119.804987,23.4055292 C119.249474,22.9027297 111.452559,22.8507922 110.556286,23.3436462 M152.203459,23.1186942 C152.000604,23.170423 151.709071,23.3201062 151.557208,23.451079 C151.404236,23.5831525 150.614989,23.7482443 149.802464,23.819784 C148.87909,23.9012293 148.10758,24.0795285 147.748428,24.296349 C147.431399,24.4867549 146.994653,24.6419412 146.777389,24.6419412 C146.560124,24.6419412 146.072388,24.807033 145.693283,25.0095456 C145.314179,25.2109576 144.868565,25.3760494 144.7034,25.3760494 C144.537126,25.3760494 144.20347,25.5290344 143.96071,25.7150378 C143.719059,25.9010413 143.290072,26.1101575 143.007407,26.1783955 C142.72585,26.2466334 142.337877,26.4447436 142.145,26.6186403 C141.952122,26.792537 141.323607,27.2658001 140.748299,27.6686241 C139.572189,28.4940831 138.685395,29.2986304 138.215394,29.9689031 C138.040253,30.2176414 137.645629,30.7745511 137.337469,31.2070916 C137.029308,31.6385315 136.77768,32.0611664 136.77768,32.144813 C136.77768,32.2284595 136.605864,32.513518 136.396359,32.7776648 C135.53506,33.8650695 135.494046,39.0555555 136.338717,40.0428044 C137.234379,41.0894864 138.373909,42.0690311 138.69648,42.0690311 C138.893792,42.0690311 139.500137,42.2077082 140.044407,42.378303 C140.974432,42.6699652 141.087498,42.6699652 141.907782,42.3772024 C142.388868,42.2066076 142.957524,42.0668298 143.172572,42.0679305 C143.387619,42.0679305 143.774483,41.9039393 144.032762,41.7014267 C144.291041,41.5000147 144.572598,41.3349229 144.657952,41.3338223 C145.013778,41.331621 146.347294,38.7429817 146.501374,37.757934 C146.564558,37.3540094 146.766304,36.7354655 146.949205,36.382169 C147.132106,36.0288726 147.321659,35.2210234 147.370432,34.5870709 C147.419206,33.9531184 147.58548,33.2432237 147.73956,33.0087934 C147.893641,32.7754636 148.078759,32.2625784 148.149702,31.8685594 C148.473382,30.085568 150.912065,26.8739822 152.182397,26.557006 C152.432916,26.4942711 152.782092,26.2862555 152.958342,26.0936484 C153.133484,25.9010413 153.474899,25.7425531 153.716551,25.7425531 C153.958202,25.7425531 154.464783,25.6049766 154.842779,25.4376836 C155.980092,24.9314021 160.922859,24.8642648 162.365007,25.3353267 C162.974678,25.5345375 163.72291,25.7557605 164.027746,25.8273003 C164.332581,25.8977394 164.73053,26.11456 164.912323,26.3082677 C165.094115,26.5019754 165.387866,26.6604635 165.565225,26.6604635 C166.143858,26.6604635 168.519357,29.3349506 168.827517,30.332105 C168.904003,30.5830446 169.069169,30.9110269 169.194428,31.0629114 C169.529193,31.4679366 170.041316,33.015397 170.256364,34.2722959 C170.360562,34.8776325 170.577827,35.7030914 170.739667,36.107016 C170.976884,36.6980447 171.047827,37.8129646 171.103252,41.8478081 C171.17863,47.3992948 171.142049,47.6051093 170.025798,47.8483445 C169.710986,47.9165824 169.408367,48.0882779 169.354051,48.2291562 C169.299735,48.3700346 168.912871,48.5769496 168.493861,48.6881114 C168.07596,48.8003739 167.567162,49.0072889 167.363199,49.1492678 C167.160345,49.2901462 166.77459,49.4057104 166.505226,49.4057104 C166.236971,49.4057104 165.819069,49.5586955 165.57631,49.7446989 C165.31138,49.9494127 164.66402,50.1321143 163.949043,50.2047547 C163.269537,50.2729927 162.622178,50.4501912 162.433734,50.6196854 C162.24529,50.7891797 161.571327,50.9718813 160.844156,51.0511253 C160.151348,51.1270676 159.319979,51.3240771 158.997408,51.4902695 C158.674837,51.6553613 158.153845,51.7907366 157.839033,51.7907366 C157.524222,51.7907366 157.032051,51.9107033 156.744951,52.0581853 C156.457852,52.2056673 155.651978,52.3784634 154.952519,52.4433995 C154.217589,52.5105368 153.487093,52.6954396 153.219946,52.8803424 C152.958342,53.0608428 152.200133,53.2556511 151.468528,53.3293921 C150.760202,53.4020325 150.052984,53.5726273 149.898903,53.7102038 C149.743714,53.8477803 149.141803,54.0458905 148.559844,54.1526499 C147.977886,54.2583086 147.254041,54.4718273 146.952531,54.6270136 C146.649912,54.7821999 146.224251,54.9087703 146.006987,54.9087703 C145.789722,54.9087703 145.399533,55.0738621 145.141254,55.2763747 C144.863023,55.4931952 144.391913,55.6428785 143.986205,55.6428785 C143.535049,55.6428785 143.185874,55.7683482 142.966392,56.0093822 C142.782383,56.2118948 142.515236,56.3769866 142.37224,56.3769866 C142.057429,56.3769866 139.768392,57.4555864 139.63759,57.6669039 C139.586599,57.7483491 139.303934,57.8683159 139.011292,57.9321513 C138.71865,57.9959868 138.331786,58.2084049 138.153319,58.4043139 C137.974852,58.6013234 137.730983,58.7609122 137.612375,58.7609122 C137.061454,58.7609122 132.158593,63.2128876 132.158593,63.713666 C132.158593,63.8061174 132.002295,64.0306423 131.811634,64.2111426 C131.620974,64.391643 131.402601,64.74604 131.325006,64.9980802 C131.247412,65.2501203 131.029039,65.6540449 130.839487,65.8939783 C130.651043,66.1350123 130.495854,66.4684978 130.495854,66.6346902 C130.495854,66.8019832 130.336231,67.2499323 130.141137,67.6296434 C129.944933,68.0104551 129.730994,68.6675205 129.663376,69.0901555 C129.595758,69.5127905 129.422834,70.2667097 129.279838,70.7641863 C128.860828,72.2103904 128.925121,76.4026214 129.387362,77.83892 C129.590216,78.4706713 129.75649,79.0826115 129.75649,79.1992764 C129.75649,79.3159413 129.922764,79.7352744 130.126726,80.1314947 C130.32958,80.527715 130.495854,81.0009782 130.495854,81.1847804 C130.495854,81.3685826 130.613354,81.5633909 130.75635,81.6184215 C130.899345,81.6723515 131.122152,81.9794222 131.250737,82.2997003 C131.516776,82.9633693 131.544488,82.9974883 133.158453,84.6495068 C134.530766,86.0538877 135.466334,86.7417702 137.146808,87.5826377 C137.807469,87.9128213 138.444852,88.2782245 138.564569,88.3948894 C138.683178,88.5115542 139.214146,88.6579356 139.744005,88.7195699 C140.273865,88.7823048 140.841413,88.946296 141.005469,89.0849731 C142.447618,90.3011493 154.76075,90.3066524 156.691744,89.0915767 C156.925636,88.9451954 157.52533,88.7768017 158.02526,88.7184693 C158.568421,88.6546338 159.060592,88.4730328 159.246819,88.2694196 C159.418635,88.081215 159.699083,87.9271293 159.869791,87.9271293 C160.222292,87.9271293 162.399371,86.8848498 162.549017,86.6449163 C162.602225,86.5590686 162.894867,86.4335988 163.198594,86.3675621 C163.50232,86.3015254 163.750623,86.1782569 163.750623,86.0946104 C163.750623,86.0098632 164.187369,85.6312527 164.720553,85.2515416 C165.253738,84.8729311 166.341169,83.8955876 167.137067,83.0811348 C168.793154,81.3839911 168.777635,81.4027015 169.725396,79.9829121 C170.540138,78.7601322 170.756294,78.743623 171.140941,79.8695491 C171.292804,80.3163975 171.511177,80.8468925 171.624243,81.0483045 C171.738418,81.2508171 171.89139,81.7460925 171.964551,82.1489165 C172.037711,82.552841 172.184032,82.9875828 172.290447,83.1141532 C172.475566,83.3375774 172.883491,84.0331641 173.390072,84.9928978 C173.524199,85.2449379 173.839011,85.6158442 174.090639,85.8183568 C174.842197,86.4203915 176.023849,87.1864174 176.206751,87.1908199 C176.299864,87.1919205 176.513803,87.3173903 176.682294,87.4681741 C176.849676,87.6189579 177.397271,87.7950558 177.897201,87.8588913 C178.39824,87.9227268 179.066661,88.1296419 179.383689,88.3178465 C179.892487,88.6216154 180.369139,88.6612375 183.486219,88.6612375 L187.012333,88.6612375 L187.506721,88.1703645 L188,87.6794916 L186.970211,86.7428708 C184.576976,84.5658603 184.755443,86.3862725 184.446174,60.9621361 C184.236669,43.6924337 184.108084,40.2442164 183.61813,38.6923535 C183.461833,38.1970782 183.334356,37.6280618 183.334356,37.4277504 C183.334356,37.227439 183.172516,36.72556 182.976313,36.3106293 C182.779001,35.8956985 182.567279,35.2474381 182.506312,34.8688276 C182.444237,34.4902171 182.325628,34.1809451 182.241383,34.1809451 C182.158246,34.1809451 181.914377,33.7891272 181.700438,33.3092604 C181.232655,32.2658803 181.07414,32.0149407 180.048785,30.7008101 C178.909255,29.2413986 178.544561,28.8583856 177.512554,28.0362285 C177.004865,27.6323039 176.562577,27.240486 176.529322,27.1645438 C176.494959,27.0886016 176.361939,27.0269673 176.232246,27.0269673 C176.103661,27.0269673 175.77333,26.8211529 175.499532,26.5680121 C175.225735,26.315972 174.852173,26.1101575 174.67038,26.1101575 C174.487479,26.1101575 174.188186,25.9450657 174.004176,25.7425531 C173.820167,25.5411412 173.513114,25.3760494 173.321345,25.3760494 C173.129576,25.3760494 172.647382,25.2109576 172.249433,25.0095456 C171.850376,24.807033 171.414738,24.6419412 171.279502,24.6419412 C171.144266,24.6419412 170.727473,24.4867549 170.352803,24.2974496 C169.974807,24.1059432 169.03148,23.8946257 168.235583,23.8230859 C167.401996,23.7482443 166.60499,23.5655427 166.336735,23.3883441 C165.881145,23.0867765 153.279805,22.8468431 152.203459,23.1186942 M299.245244,23.3565852 C298.872058,23.5601341 297.994687,23.7746856 297.231803,23.8495036 C296.488734,23.9232213 295.769884,24.0937622 295.633379,24.230195 C295.497976,24.3655275 295.165521,24.5250658 294.894714,24.5844801 C294.623907,24.6427941 294.016242,24.8496437 293.542879,25.04219 C293.070618,25.2358365 292.525701,25.3942745 292.333054,25.3942745 C292.140406,25.3942745 291.833271,25.5593141 291.650531,25.7606625 C291.467791,25.9631111 291.157354,26.1281507 290.961404,26.1281507 C290.764353,26.1281507 290.358142,26.3339001 290.057612,26.5858606 C289.758183,26.8389214 289.354174,27.0446708 289.160426,27.0446708 C288.965576,27.0446708 288.807055,27.1128872 288.807055,27.1976075 C288.807055,27.3571458 287.111758,28.5113229 286.876177,28.5113229 C286.800219,28.5113229 286.554731,28.6972676 286.330159,28.923922 C286.105588,29.1516767 285.524343,29.6666003 285.038871,30.0703973 C283.500994,31.347804 281.264082,33.6814643 280.550736,34.7520214 C280.39882,34.9786758 280.089483,35.3912749 279.86271,35.6696417 C279.635936,35.9469083 279.449894,36.2560825 279.449894,36.3551063 C279.449894,36.4541301 279.313389,36.6488769 279.146061,36.7875101 C278.978733,36.9250432 278.72554,37.2859298 278.583531,37.5885025 C278.440421,37.8910751 278.12558,38.4687138 277.882294,38.8725108 C277.362697,39.7351179 277.064368,40.380973 277.064368,40.6439361 C277.064368,40.747361 276.899242,41.0411315 276.697788,41.2985933 C276.496334,41.5549549 276.331207,41.930145 276.331207,42.1325936 C276.331207,42.3339419 276.172686,42.8389632 275.978938,43.2537628 C275.438424,44.4112407 275.043221,45.7106527 274.79333,47.1552996 C274.667834,47.8781731 274.446565,48.6131496 274.301254,48.7880916 C273.874127,49.3030153 273.912656,62.8923782 274.344186,63.537133 C274.512615,63.7890935 274.708565,64.4899618 274.78012,65.0951071 C274.851675,65.7002524 275.012398,66.402221 275.136793,66.6541815 C275.262289,66.906142 275.417508,67.4056619 275.482458,67.764348 C275.547407,68.1230342 275.764273,68.7391821 275.965727,69.1330767 C276.166081,69.5269713 276.331207,70.0815044 276.331207,70.3664728 C276.331207,70.6591431 276.451199,70.9298081 276.608619,70.9903226 C276.761637,71.0486366 276.977402,71.4557344 277.087486,71.8958401 C277.198671,72.3348455 277.403428,72.7892546 277.544336,72.9058826 C277.684143,73.0225106 277.79863,73.2194579 277.79863,73.344888 C277.79863,73.4703181 277.958252,73.7761916 278.154202,74.0248513 C278.350152,74.273511 278.564817,74.6971127 278.633069,74.9666774 C278.70022,75.2362421 278.826817,75.456295 278.914884,75.456295 C279.001851,75.456295 279.212112,75.7236592 279.381642,76.0515379 C280.460467,78.1365385 285.239225,82.9997062 287.752448,84.5697832 C288.332592,84.9317701 288.807055,85.2992584 288.807055,85.385079 C288.807055,85.4719999 288.961173,85.5424168 289.149417,85.5424168 C289.337661,85.5424168 289.68883,85.6942532 289.928814,85.8790976 C290.507857,86.3258049 293.303997,87.6516232 294.171461,87.8892803 C294.547949,87.9938054 294.975076,88.196254 295.120387,88.3414888 C295.264597,88.4856235 295.886573,88.6572647 296.500843,88.72108 C297.116214,88.7848953 297.80314,88.9532357 298.028813,89.0940696 C299.95969,90.3010594 313.088338,90.3021596 315.279014,89.0962701 C315.559729,88.9411328 316.237848,88.7683914 316.787169,88.7122779 C317.425657,88.646262 317.895717,88.4867237 318.093869,88.2677711 C318.264499,88.079626 318.558424,87.925589 318.74887,87.925589 C319.038392,87.925589 320.571865,87.2610294 321.648489,86.6690873 C322.449902,86.2289816 323.072979,85.8956016 323.483594,85.6876516 C323.735686,85.560021 324.025208,85.3663745 324.125385,85.2574483 C324.226662,85.1496224 324.801302,84.7359231 325.402362,84.3387277 C326.91602,83.3396879 330.810801,79.4205468 331.343609,78.3620927 C331.978795,77.0978891 331.179583,76.1032503 330.029203,76.7259998 C329.810135,76.8448284 329.355487,77.0868865 329.01973,77.2651293 C328.685074,77.4422718 328.354822,77.6755278 328.286569,77.784454 C328.218317,77.8933801 327.872653,78.113433 327.520383,78.2740715 C326.838961,78.584346 326.421742,78.8330058 325.708396,79.3534307 C325.466211,79.529473 325.126051,79.6736076 324.951017,79.6736076 C324.777083,79.6736076 324.43252,79.8320456 324.187032,80.0256921 C323.940443,80.2193386 323.415341,80.4382912 323.019038,80.5120089 C322.622735,80.5868269 322.049196,80.7991779 321.744262,80.9851225 C321.439329,81.1710671 320.959362,81.3229036 320.676445,81.3240039 C320.393529,81.3240039 319.916864,81.4516345 319.616334,81.6067718 C318.032222,82.4253683 309.213372,82.4286691 306.781611,81.6111728 C306.331367,81.4593364 305.740214,81.2909959 305.470508,81.2381833 C305.199701,81.1842703 304.865045,81.0269325 304.725238,80.887199 C304.586531,80.7485657 304.131883,80.5769245 303.715765,80.5076078 C303.298546,80.4371909 302.774545,80.2204389 302.551074,80.0267924 C302.327603,79.8331459 302.002854,79.6736076 301.830022,79.6736076 C301.657189,79.6736076 301.31813,79.529473 301.077045,79.3534307 C300.501305,78.9331298 300.057665,78.659164 299.218823,78.2047549 C298.841234,78.0001058 298.530797,77.7492455 298.530797,77.646921 C298.530797,77.5456967 298.386586,77.4103642 298.210452,77.3465488 C297.686451,77.1573034 293.760846,73.5187297 293.760846,73.2216584 C293.760846,73.0775238 293.526367,72.7771517 292.74587,71.9222464 C292.541113,71.6977925 292.270306,71.3071987 292.142608,71.0552382 C291.75401,70.283953 291.447976,69.7888341 291.15185,69.4521533 C290.99553,69.2750108 290.806185,68.9240265 290.730227,68.6709657 C290.654269,68.4190052 290.437403,68.0163085 290.249159,67.7753507 C290.062016,67.5354931 289.907898,67.1636038 289.906797,66.9501525 C289.905696,66.7367013 289.74167,66.3153001 289.541317,66.0127275 C289.340964,65.7101548 289.172535,65.3382655 289.169232,65.1875293 C289.164829,65.0356929 289.001904,64.582384 288.807055,64.1785871 C288.612206,63.7747901 288.449281,63.2136554 288.445979,62.9308875 C288.442676,62.6481196 288.284155,62.0704809 288.093709,61.6468792 C287.870238,61.1528605 287.698507,60.1956307 287.612641,58.9677359 C287.538885,57.9180838 287.368254,56.7947141 287.233951,56.473437 C286.89269,55.6570409 286.703345,52.7523435 286.949934,52.1218921 L287.146985,51.6168708 L309.431339,51.6168708 C322.348625,51.6168708 331.900635,51.5475542 332.15493,51.450731 C332.726267,51.2328786 333.14789,48.8266009 332.950839,46.9077401 C332.880385,46.220075 332.748284,44.8557474 332.656914,43.875412 C332.565544,42.8961769 332.371796,41.9059391 332.227585,41.6748837 C332.083375,41.4449284 331.908341,40.9344059 331.838988,40.5416115 C331.769635,40.1488172 331.603408,39.6536984 331.469105,39.4413474 C331.334802,39.2289964 331.170777,38.7932918 331.103625,38.4731149 C331.037575,38.1518377 330.865843,37.7931516 330.723835,37.6743231 C330.581826,37.5565948 330.411195,37.1737029 330.345145,36.8227186 C330.280195,36.4717343 330.11617,36.1427553 329.982968,36.0910429 C329.848665,36.0393305 329.64611,35.7158528 329.532723,35.3725704 C329.419336,35.0281877 329.270723,34.7454198 329.20247,34.7432193 C329.135319,34.7410188 328.831486,34.3185173 328.528755,33.8035937 C328.226023,33.28867 327.793392,32.6978282 327.565518,32.4909785 C327.338744,32.2830286 327.152702,32.0563741 327.152702,31.9870575 C327.152702,31.7835086 324.624066,29.2451992 324.421511,29.2451992 C324.319133,29.2451992 324.162813,29.115368 324.073645,28.9569299 C323.985578,28.7984919 323.741191,28.5707372 323.532031,28.4519087 C323.322871,28.3341804 322.453205,27.762043 321.600052,27.1822038 C320.746899,26.6023646 319.931175,26.1281507 319.789166,26.1281507 C319.646057,26.1281507 319.324611,25.9829158 319.074719,25.8068736 C318.636584,25.4965991 318.240281,25.3216571 316.878539,24.8386411 C316.525168,24.713211 315.864663,24.4601502 315.411116,24.2753058 C314.956468,24.0904614 314.024054,23.8858123 313.337128,23.8197964 C312.564337,23.7449785 311.976487,23.5854402 311.791545,23.4005958 C311.285158,22.8944743 300.166649,22.8548648 299.245244,23.3565852 M308.42783,25.3910325 C309.075701,25.5954547 309.77589,25.7639346 309.986281,25.7650578 C310.195559,25.766181 310.649736,25.9784655 310.995935,26.2356781 C311.342134,26.4928906 311.762915,26.704052 311.931006,26.704052 C312.100209,26.704052 312.416352,26.851191 312.633422,27.0309028 C312.851605,27.2117379 313.407081,27.6430462 313.867938,27.9889915 C314.328794,28.3360599 314.706162,28.6943603 314.706162,28.7842162 C314.706162,28.8751953 314.796329,28.9504497 314.906534,28.9504497 C315.141415,28.9504497 316.191143,29.9725606 316.191143,30.20057 C316.191143,30.2870563 316.35812,30.4622753 316.561831,30.5914432 C316.765543,30.7194878 316.93252,30.9418812 316.93252,31.0845274 C316.93252,31.2271737 317.05497,31.3911607 317.205249,31.4495671 C317.355528,31.5068502 317.607107,31.8325779 317.766291,32.1706607 C317.924363,32.5098668 318.344031,33.3320483 318.699136,33.9981052 C319.05424,34.6641621 319.34478,35.324603 319.34478,35.4661261 C319.34478,35.6076492 319.511757,35.9378696 319.715468,36.1995749 C319.936991,36.482621 320.08727,36.9588574 320.08727,37.3755641 C320.08727,37.7608213 320.247568,38.4437262 320.443488,38.8941289 C320.865383,39.8634495 321.133659,43.3936635 320.93106,45.3019783 C320.737367,47.130546 319.544039,48.4177319 318.036794,48.4222247 C317.480204,48.4233479 316.692073,48.5457765 316.283537,48.6940388 C315.51099,48.9748385 288.653313,49.1298399 287.651452,48.859149 C287.034751,48.6917924 286.835492,48.0223659 287.141616,47.1462708 C287.280763,46.7497816 287.455532,45.5951332 287.531229,44.5786383 C287.614717,43.4543162 287.802844,42.4355749 288.011009,41.9716938 C288.199136,41.5538638 288.358321,40.9585684 288.363887,40.6496887 C288.369453,40.340809 288.535316,39.7511297 288.732349,39.3400389 C288.929382,38.9278249 289.094132,38.4639438 289.098585,38.3100656 C289.101925,38.1550641 289.272241,37.7765461 289.47484,37.4676664 C289.677438,37.1587867 289.843302,36.7330944 289.844415,36.5208098 C289.845528,36.3096484 290.054806,35.8513833 290.309724,35.5020685 C290.564642,35.1527536 290.772807,34.7641268 290.772807,34.6383286 C290.772807,33.8004222 294.45743,29.2054158 295.968014,28.1597177 C296.222933,27.9833755 296.770617,27.5969951 297.183606,27.3004706 C297.597709,27.0050693 298.163204,26.7051752 298.441499,26.6344137 C298.71868,26.5647753 299.11052,26.3401356 299.312005,26.1368366 C299.513491,25.9335376 299.869708,25.7673042 300.103476,25.7673042 C300.337243,25.7673042 300.984,25.6021939 301.54059,25.4000181 C302.999968,24.8709915 306.76808,24.8653755 308.42783,25.3910325 M378.126987,28.3007487 C378.356545,28.4589495 378.66337,28.5894928 378.810063,28.5894928 C380.04184,28.5894928 385.254494,33.7105526 385.66434,35.3235371 C385.728169,35.5746671 385.856945,35.7804388 385.949888,35.7804388 C386.043951,35.7804388 386.21416,36.0083364 386.329499,36.2871239 C386.568016,36.8668247 387.021534,37.8890454 387.588151,39.1192503 C387.803152,39.5861086 387.97896,40.2100615 387.97896,40.5043371 C387.97896,40.799719 388.14805,41.3528687 388.355212,41.734542 C388.581411,42.1505106 388.794173,43.038869 388.888235,43.9526723 C388.97446,44.7912472 389.148028,45.6674363 389.274565,45.9008655 C389.514202,46.3433852 389.753839,48.9619958 389.9666,53.4491461 C390.114413,56.5766545 389.74712,63.2542775 389.346232,64.7278683 C389.19506,65.2854432 388.992377,66.4835654 388.894954,67.3907309 C388.795292,68.3310854 388.606047,69.1630225 388.453754,69.3289674 C388.308181,69.4882745 388.103258,70.136566 388.000237,70.7693692 C387.897215,71.4021724 387.682214,72.1046726 387.523203,72.3292513 C387.363072,72.5549364 387.232056,72.8669128 387.232056,73.022901 C387.232056,73.1799955 387.064086,73.6169838 386.859163,73.9953382 C386.654241,74.3736926 386.486271,74.8051493 386.486271,74.9533935 C386.486271,75.1016376 386.32502,75.3726809 386.127936,75.554114 C385.930852,75.7344408 385.713611,76.1050511 385.644184,76.3772008 C385.575876,76.6482441 385.358636,77.0133229 385.162671,77.1892245 C384.966707,77.3640198 384.806576,77.5819608 384.806576,77.671571 C384.806576,78.2667601 381.877187,81.4396267 380.81114,81.9994142 C380.513274,82.1554024 380.177335,82.3589615 380.064236,82.4507843 C379.04858,83.2849341 377.459588,83.9686271 375.754137,84.3060484 C375.24127,84.4078279 374.41262,84.6080681 373.913191,84.7507808 C372.76204,85.0793517 371.066667,85.0837769 370.132757,84.7596311 C369.734109,84.6213437 368.927855,84.4498673 368.338842,84.3779579 C367.749829,84.3060484 367.220165,84.1699736 367.160816,84.0759381 C367.102586,83.9807964 366.686022,83.8126389 366.236983,83.7009026 C365.786825,83.5891664 365.275077,83.340249 365.099269,83.147753 C364.922341,82.9552569 364.695023,82.7981623 364.593121,82.7981623 C363.627856,82.7981623 358.816089,78.2523782 358.414082,76.9602205 C358.345774,76.7422795 358.167726,76.5165945 358.017674,76.4590669 C357.867621,76.4026456 357.744443,76.2400196 357.744443,76.0984133 C357.744443,75.956807 357.587671,75.642618 357.397306,75.4014447 C357.205821,75.1591651 356.985221,74.7542596 356.907955,74.500917 C356.830689,74.2475744 356.647042,73.9046216 356.501468,73.739783 C356.354775,73.5749444 356.184566,73.1180428 356.124097,72.7253065 C356.062508,72.3325702 355.867663,71.873456 355.691855,71.7064048 C355.516047,71.5382473 355.313364,71.0448377 355.243937,70.6089558 C355.173389,70.1730738 355.034534,69.7205974 354.934873,69.6022234 C354.83633,69.4849556 354.667241,68.8997233 354.559741,68.3034279 C354.45224,67.7060262 354.252916,66.9681245 354.116301,66.6638922 C353.979686,66.3596599 353.811716,65.1980455 353.741169,64.0828958 C353.671742,62.967746 353.483616,61.6811198 353.324605,61.2253245 C352.893483,59.9862692 352.891243,53.171465 353.321245,51.2686301 C353.493694,50.5074961 353.712054,48.9487203 353.807237,47.8025941 C353.90242,46.6575742 354.061431,45.6198654 354.161093,45.4981725 C354.260755,45.3753733 354.400729,44.9029834 354.470157,44.4460818 C354.540704,43.9891801 354.760184,43.1384359 354.958388,42.5554161 C355.156592,41.9723964 355.317843,41.3595065 355.317843,41.1946679 C355.317843,41.028723 355.475734,40.6348804 355.66834,40.3195851 C355.862064,40.0031835 356.073706,39.4411834 356.139774,39.0716794 C356.206962,38.7010691 356.38501,38.2972698 356.536182,38.1733643 C356.687355,38.0494588 356.811652,37.8237737 356.811652,37.6722107 C356.811652,36.1853443 361.128469,30.7036309 363.436371,29.2610165 C365.001847,28.2819416 365.100389,28.224414 365.583022,28.0164297 C365.839455,27.9057998 366.30865,27.6944966 366.624433,27.5451462 C368.197747,26.8039256 374.264807,26.8227327 376.447292,27.5761226 C377.141566,27.8161895 377.897429,28.1414415 378.126987,28.3007487 Z M170.791094,52.1255447 C171.178665,52.5957866 170.979436,71.4395211 170.580978,72.0075469 C170.4057,72.2569509 170.263083,72.6195205 170.263083,72.8139897 C170.263083,73.1370063 169.681727,74.4180858 168.80316,76.0309715 C168.614818,76.3770607 168.335027,76.7319395 168.182611,76.8176378 C168.029107,76.9044348 167.901731,77.073634 167.899554,77.1944905 C167.889756,77.6361663 164.698828,80.4653084 163.940016,80.7037254 C163.70595,80.7784368 163.35866,80.9948799 163.169229,81.186053 C162.97871,81.3783248 162.701096,81.5343396 162.550858,81.5343396 C162.400619,81.5343396 161.973856,81.699144 161.601527,81.901304 C161.228109,82.1023654 160.69792,82.2671698 160.421395,82.2671698 C160.14487,82.2671698 159.614681,82.4319742 159.242352,82.6330355 C158.63269,82.9626443 158.218991,83 155.111892,83 C152.005881,83 151.591093,82.9626443 150.98252,82.6330355 C150.61019,82.4319742 150.158387,82.2671698 149.978754,82.2671698 C149.675012,82.2671698 148.640764,81.7518814 147.2233,80.8937998 C146.342556,80.3609323 144.844529,78.7908958 144.558205,78.1009147 C144.42212,77.7735033 144.234867,77.5065202 144.14124,77.5065202 C144.046525,77.5065202 143.889754,77.2384384 143.791773,76.911027 C143.692703,76.5836156 143.488031,75.985925 143.336704,75.5838022 C142.58769,73.5896691 143.17449,67.7643831 144.250108,66.5052775 C144.386194,66.3459666 144.499416,66.1394117 144.500505,66.0471213 C144.508126,65.6603803 145.630557,64.2474573 146.880365,63.0531748 C148.622256,61.3875517 148.749632,61.2765834 149.235184,61.0150937 C149.46163,60.8931385 149.732712,60.7206432 149.839403,60.6316489 C150.347818,60.2075522 151.433234,59.5604203 151.637906,59.5604203 C151.763105,59.5604203 152.143055,59.3549641 152.481635,59.1033628 C152.819127,58.8517614 153.206697,58.6452066 153.342783,58.6452066 C153.477779,58.6452066 153.89039,58.4847969 154.259453,58.2892291 C155.764012,57.4904771 156.505405,57.1806448 156.908217,57.1806448 C157.141195,57.1806448 157.529855,57.0235313 157.771542,56.8312595 C158.01323,56.6389877 158.61636,56.4225446 159.11171,56.3511294 C159.605972,56.2786154 160.141604,56.1050215 160.300551,55.9654871 C160.459499,55.824854 161.066984,55.5842396 161.651606,55.4315209 C162.23514,55.2777034 162.799077,55.0843329 162.903591,55.0019307 C163.009193,54.9195285 163.376079,54.7975733 163.719014,54.7316515 C164.061949,54.6657298 164.470205,54.5009254 164.625886,54.3635884 C164.782656,54.2273501 165.254056,54.0713353 165.675376,54.0185978 C166.095607,53.9647617 166.658456,53.7472199 166.924094,53.5362703 C167.190822,53.324222 167.586013,53.1517267 167.801572,53.1517267 C168.01822,53.1517267 168.293657,53.0517454 168.415589,52.9286914 C169.104725,52.2332169 170.493884,51.762975 170.791094,52.1255447" id="path0" fill="#0E9488"></path>
    </g>
</svg>