<?xml version="1.0" encoding="UTF-8"?>
<svg width="394px" height="86px" viewBox="0 0 394 86" version="1.1" xmlns="http://www.w3.org/2000/svg" xmlns:xlink="http://www.w3.org/1999/xlink">
    <title>Group 5</title>
    <g id="Page-1" stroke="none" stroke-width="1" fill="none" fill-rule="evenodd">
        <g id="Group-5" fill="#060606">
            <path d="M210.928804,0.143808305 C210.539529,0.219663234 209.664457,0.375587257 208.983492,0.490423193 C208.303587,0.605259128 207.495339,0.804378319 207.189859,0.933963824 C206.883319,1.06249579 206.326455,1.22158043 205.95203,1.2879535 C205.577605,1.35432656 205.022863,1.55660637 204.720565,1.73781537 C204.417207,1.91902437 204.058692,2.06757361 203.925045,2.06862715 C203.790337,2.06862715 203.243019,2.38363582 202.708429,2.76817817 C202.172779,3.15377406 201.567123,3.54253058 201.36241,3.63313508 C201.156635,3.72268604 200.940254,3.92180523 200.881915,4.07351509 C200.822517,4.22627849 200.652806,4.35059629 200.504309,4.35059629 C200.354751,4.35059629 200.232771,4.42961184 200.232771,4.52653759 C200.232771,4.62240979 200.09382,4.84049271 199.924109,5.01011277 C199.391641,5.54109727 198.123052,7.43536344 197.778326,8.21393001 C197.671196,8.45519083 197.509971,8.77125304 197.418751,8.91558811 C197.181156,9.2959163 196.715512,10.7571772 196.417457,12.0625142 C196.275324,12.6830496 196.075913,13.2919962 195.971965,13.4152604 C195.857411,13.5522207 195.746038,15.3442934 195.683457,18.026608 C195.561477,23.3301319 195.802254,22.8613063 193.165371,22.9340006 L191.034437,22.9929989 L190.418175,23.5692856 C189.601441,24.3352097 189.521889,25.7385259 190.251646,26.5202531 C190.692894,26.9932929 190.738504,27.0017212 192.815342,27.0017212 C196.043032,27.0017212 195.650575,23.3396137 195.595419,52.9483214 C195.55087,76.5823997 195.528596,78.219602 195.240087,78.712659 C195.070376,79.0023827 194.931425,79.4933327 194.930364,79.8041272 C194.929304,80.485768 194.116813,81.4782033 193.18022,81.9417613 C191.361131,82.8425385 191.064137,83.1912605 191.433258,83.9951121 C191.750406,84.6883418 196.539436,84.8052849 201.028291,84.2300516 C202.607664,84.0277718 204.824513,84.084663 208.099934,84.4112606 C210.037821,84.6051121 214.926557,84.6388254 215.171577,84.460777 C215.760262,84.0309324 215.767687,82.6634366 215.181124,82.6634366 C215.060205,82.6634366 214.817306,82.5054055 214.641231,82.3126076 C214.465156,82.1198096 214.188315,81.9617785 214.027089,81.9617785 C213.616601,81.9617785 212.655613,81.0715366 212.196332,80.265578 L211.812361,79.591312 L211.765691,53.6404976 C211.73387,35.9357463 211.777358,27.5811686 211.903581,27.3483361 C212.076474,27.0259526 212.339526,27.0048818 216.721251,26.9606331 L221.35542,26.9142773 L221.657718,26.2990095 C222.22625,25.1443289 221.957894,23.8632235 221.020241,23.2521699 C220.634149,23.0014272 219.93303,22.9634997 215.718895,22.9634997 C212.824263,22.9634997 210.669994,22.8908054 210.385729,22.7833443 C209.834168,22.5747432 208.011897,20.886971 208.011897,20.5846048 C208.011897,20.471876 207.812486,20.1674027 207.569588,19.9071782 C207.326689,19.6459001 207.127278,19.3193025 207.127278,19.1791815 C207.127278,19.0390606 207.050908,18.9242247 206.957567,18.9242247 C206.864226,18.9242247 206.698758,18.59552 206.589507,18.194121 C206.480255,17.792722 206.25857,17.262791 206.096284,17.0162625 C205.579727,16.2324282 205.662461,8.72173663 206.199172,7.77671063 C206.418735,7.39216827 206.596932,6.97391262 206.596932,6.84854127 C206.596932,6.72211639 206.744368,6.40500064 206.923625,6.14372255 C207.102882,5.88139092 207.470943,5.33249622 207.74142,4.92266889 C208.186911,4.24945639 209.600816,3.1211143 209.998576,3.1211143 C210.086613,3.1211143 210.277538,3.00311775 210.422853,2.85772913 C210.87683,2.40786725 215.277647,2.48056156 215.701924,2.94622655 C215.877999,3.13902449 216.097563,3.2970556 216.189843,3.2970556 C216.363797,3.2970556 216.830502,3.83857551 217.491314,4.80467233 C217.701331,5.11125267 217.930441,5.78551872 218.002568,6.30070011 C218.073635,6.81693505 218.246528,7.41218555 218.385479,7.62394722 C218.52549,7.83465536 218.703687,8.62691796 218.783239,9.38336018 C218.86173,10.1408559 219.046291,10.996331 219.192666,11.2860547 C219.339042,11.5757784 219.608458,12.1267801 219.789837,12.5092154 C220.161079,13.2898891 221.076458,14.3592329 221.374513,14.3592329 C221.481643,14.3592329 221.712874,14.517264 221.888949,14.7100619 C222.25807,15.1156751 227.13726,15.2589566 227.378038,14.8712537 C227.44274,14.7669531 227.724884,14.5436025 228.004907,14.375036 C229.984161,13.1792673 230.786046,8.42358461 229.3085,6.63361897 C229.188641,6.48823036 228.966956,6.12475882 228.814217,5.82555326 C228.276445,4.77095903 225.012691,2.06757361 224.27657,2.06757361 C224.145044,2.06757361 223.897902,1.94220227 223.727131,1.78838533 C223.556359,1.63562193 223.072683,1.43650273 222.652648,1.34695178 C222.232614,1.25845436 221.609987,1.07619182 221.270565,0.94239215 C220.930082,0.809646023 220.134562,0.611580372 219.502389,0.5009586 C218.870216,0.391390367 217.955898,0.231252182 217.469039,0.143808305 C216.393496,-0.0479361015 211.906763,-0.0479361015 210.928804,0.143808305" id="path0-path"></path>
            <path d="M34.4895312,5.21766028 C33.6144591,5.29140813 32.659835,5.43679675 32.3681443,5.53899019 C32.0764536,5.64223718 31.365789,5.77498331 30.7887717,5.83398159 C30.2117545,5.89297987 29.6400407,6.02361891 29.5191217,6.12370528 C29.3971419,6.22379164 28.7596652,6.38076921 28.1020352,6.47348079 C27.4444053,6.56619237 26.7804112,6.75477615 26.6266106,6.89278998 C26.4738708,7.03080381 25.992316,7.19831678 25.5574317,7.26574339 C25.1225473,7.33316999 24.5762902,7.53439627 24.345059,7.71349818 C24.1127672,7.89154656 23.8168337,8.03798872 23.6874291,8.03798872 C23.2249668,8.03798872 19.3417681,10.0249665 17.7645169,11.0690253 C17.2203812,11.4303897 16.7112483,11.7253811 16.6348784,11.7253811 C16.5574478,11.7253811 16.3272773,11.8897335 16.1225635,12.0899062 C15.9178496,12.290079 15.2697659,12.8231705 14.6821418,13.2751395 C13.4527981,14.219112 13.0773126,14.53096 12.7803184,14.8533435 C12.6636421,14.9797683 12.3369486,15.2958306 12.0537434,15.5550016 C10.9262263,16.5895785 10.3587553,17.1879896 10.3587553,17.3418066 C10.3587553,17.430304 10.2452611,17.5651572 10.1084316,17.6431192 C9.885686,17.767437 9.58444906,18.1266944 8.46435679,19.6037584 C8.29040306,19.8323768 8.02947247,20.1515996 7.88309678,20.3117378 C7.64974422,20.5698553 7.24668071,21.1661593 6.50525599,22.348232 C5.59093824,23.8084394 5.27060882,24.3130853 4.92270137,24.8377486 C4.70313783,25.1675068 4.52494133,25.5415138 4.52494133,25.6689922 C4.52494133,25.7964706 4.37008009,26.0956762 4.18233735,26.3337764 C3.99353392,26.5718766 3.78351661,26.9964535 3.71457154,27.2788024 C3.64562647,27.5611513 3.45045887,28.0679044 3.27968723,28.4060909 C2.66024225,29.63768 2.22641864,30.7049167 2.22535794,31.0009617 C2.22535794,31.1674211 2.08004294,31.5403745 1.90184644,31.8300982 C1.72364994,32.1198219 1.52848235,32.782499 1.46590144,33.300841 C1.40438122,33.8202366 1.22512402,34.440772 1.06814139,34.6788722 C0.90373391,34.9285614 0.718112557,35.7608585 0.632196388,36.6321367 C0.550522993,37.4675944 0.378690655,38.4284235 0.250346748,38.7666101 C-0.0795289136,39.6336741 -0.0848323808,50.1680275 0.242921894,51.0561623 C0.36808372,51.3932953 0.548401606,52.4162833 0.643864016,53.3297031 C0.738265733,54.2420693 0.933433326,55.1660245 1.07662694,55.3830539 C1.21982056,55.6000833 1.38953151,56.2364219 1.4552945,56.7979591 C1.5199968,57.3584427 1.72046786,58.0927606 1.89972505,58.4298936 C2.07898225,58.7659731 2.22641864,59.1842287 2.22641864,59.3591165 C2.22641864,59.5329507 2.38552265,59.9849197 2.57962955,60.3641943 C2.77479715,60.7424154 2.93390116,61.1933308 2.93496186,61.3661115 C2.93496186,61.5388922 3.09406587,61.9181668 3.28711208,62.2078905 C3.48015829,62.4976142 3.6392623,62.9474761 3.6392623,63.2077006 C3.640323,63.4742464 3.78882008,63.7829339 3.98186629,63.9177871 C4.16960903,64.0484261 4.38068702,64.3887198 4.45069279,64.6731758 C4.52175925,64.9586853 4.63207137,65.2315523 4.69677367,65.2800152 C4.76253666,65.3284781 5.15181116,65.9606025 5.56229952,66.6854385 C6.35357683,68.0792728 6.59223286,68.4585475 7.44184831,69.6669586 C7.733539,70.0831072 8.05174704,70.5529864 8.14827014,70.7110175 C9.0286457,72.148047 14.1910407,77.2145242 15.8934537,78.3133671 C16.30076,78.5756987 16.7536761,78.893868 16.8989911,79.0202929 C17.1408292,79.231001 18.0328724,79.8062343 18.9323404,80.3340582 C20.5159557,81.2622275 21.1194903,81.5719685 21.5395249,81.6741619 C21.8068196,81.7394814 22.0263832,81.8637992 22.0263832,81.9512431 C22.0263832,82.038687 22.324438,82.2051464 22.6893166,82.3210359 C23.0531344,82.4379789 23.4710476,82.6307769 23.6174233,82.751934 C23.7627383,82.8720377 24.172166,83.0216405 24.5274983,83.0848529 C24.8817699,83.1480653 25.2614982,83.3060964 25.3696889,83.4367355 C25.4789403,83.566321 25.9615559,83.7243521 26.4431107,83.7886181 C26.9342117,83.8528841 27.3828851,84.01829 27.4656192,84.1657857 C27.5621423,84.3375128 28.0723358,84.4818479 28.9304368,84.5808807 C29.6538297,84.6641104 30.4854134,84.8590154 30.7771041,85.0138859 C31.0687948,85.1687564 31.590656,85.2962348 31.936442,85.2962348 C32.2832888,85.2972884 33.7099215,85.4553195 35.1079154,85.6491709 C36.5568227,85.8493437 38.614568,86 39.8937643,86 C41.2387235,86 43.0737232,85.8598791 44.4770206,85.6491709 C45.7647025,85.4553195 47.0513236,85.2972884 47.3355895,85.2972884 C47.620916,85.2972884 48.1024708,85.1698099 48.4068898,85.0128324 C48.7123696,84.8569083 49.4697047,84.6662175 50.091271,84.589309 C50.7128374,84.5134541 51.3545569,84.3311915 51.5179037,84.1858029 C51.6801898,84.0393608 52.0524932,83.8676336 52.3441839,83.8023141 C53.1004583,83.6337476 54.7710505,82.9816059 55.0839551,82.7319168 C55.2303308,82.6160273 55.6874897,82.4316577 56.1011601,82.3220894 C56.5137698,82.2125212 56.8521311,82.0555436 56.8521311,81.9723139 C56.8521311,81.8880307 57.0706339,81.7436956 57.3379287,81.6488769 C57.6052234,81.5551118 58.2405788,81.2116576 58.7486509,80.8861135 C59.2577838,80.5595159 60.0013299,80.095958 60.402272,79.8546971 C60.8021534,79.6134363 61.3590175,79.2183586 61.6379799,78.9760442 C61.9169423,78.7347834 62.5459335,78.2217091 63.0338525,77.8350596 C64.0107511,77.0628143 67.1885887,73.9822613 67.6818111,73.3301196 C69.1986028,71.3220711 69.5804524,70.7700157 69.5804524,70.5793249 C69.5804524,70.491881 69.7310709,70.2295494 69.9145708,69.9977704 C70.2030794,69.6332453 70.3929436,68.6629344 70.3123309,67.9644369 C70.2317182,67.2648859 68.4762705,67.4513626 67.599077,68.253107 C66.8279529,68.9558187 63.9333205,70.8890658 63.6416298,70.8953871 C63.5344998,70.8974942 63.3043293,71.0576324 63.1282542,71.2504303 C62.9521791,71.4432282 62.6307889,71.6012593 62.4154682,71.6012593 C62.1990867,71.6012593 61.9264885,71.7160953 61.8098122,71.8562162 C61.6931359,71.9963371 61.3049221,72.2038846 60.9485291,72.317667 C60.5910754,72.4314494 60.2198327,72.5863199 60.1222489,72.6611213 C60.0257258,72.7359227 59.5876594,72.8907932 59.1506537,73.0056291 C58.7125874,73.120465 58.2352753,73.3153701 58.0899603,73.4386343 C57.9435846,73.5618986 57.3708101,73.7125549 56.8171282,73.7736603 C56.2634462,73.8347656 55.5474781,74.0338848 55.226088,74.2150938 C53.7082357,75.0737295 42.8233996,75.0442303 41.8613506,74.1792734 C41.6873969,74.0233494 41.071134,73.8431939 40.4919954,73.778928 C39.9128567,73.714662 39.3199291,73.5597915 39.1735534,73.4354737 C39.0282384,73.3111559 38.669724,73.1562854 38.3780333,73.0920194 C38.0863426,73.0277534 37.0309526,72.5673562 36.0328401,72.0690314 C33.5794562,70.8437636 33.3524678,70.7162852 32.3045027,69.9682713 C31.8038554,69.611121 31.3148757,69.3192902 31.2183526,69.3192902 C31.1207688,69.3192902 31.0422775,69.2413282 31.0422775,69.145456 C31.0422775,69.0506373 30.7431619,68.7788238 30.3793441,68.5417772 C29.6060985,68.0402918 27.3892492,65.9300498 26.3084026,64.665801 C25.8947322,64.1832793 25.438634,63.6628302 25.2943797,63.5100668 C25.1501254,63.3562499 25.0313277,63.1423811 25.0313277,63.0328129 C25.0313277,62.9242982 24.8775272,62.7525711 24.6897844,62.6524847 C24.5020417,62.5534519 24.2930851,62.2932273 24.2273221,62.0761979 C24.1604984,61.858115 23.9833626,61.5420528 23.8327441,61.3724328 C23.5177182,61.0152825 23.2037529,60.5011546 22.836753,59.7352305 C22.6935594,59.438132 22.4612675,59.0988919 22.3201953,58.9830025 C22.179123,58.8660595 22.0125942,58.504695 21.9510739,58.1791509 C21.8895537,57.8546604 21.7272676,57.5449194 21.5893775,57.4932959 C21.4514873,57.4406189 21.2860191,57.119289 21.2213168,56.7800489 C21.1576752,56.4397552 20.9996319,56.0752302 20.8702273,55.967769 C20.7408227,55.8613614 20.5817187,55.5231748 20.5170164,55.215541 C20.4533748,54.9089606 20.2953315,54.4917585 20.1669876,54.2894787 C20.037583,54.0871989 19.8498402,53.4771988 19.7490743,52.9325183 C19.6472478,52.3888913 19.4499588,51.7641416 19.3088866,51.5450052 C19.168875,51.3248152 18.9981034,50.6315854 18.9291583,50.0036751 C18.8602132,49.3757649 18.7255052,48.7657648 18.6289821,48.6467147 C18.532459,48.5276646 18.3468376,47.7775437 18.217433,46.9789598 C18.0880284,46.180376 17.885436,45.171084 17.767699,44.7359717 C17.4664621,43.6265933 17.4685834,32.3147269 17.7698204,31.215884 C17.8896787,30.7807717 18.0922712,29.7830686 18.2216758,28.9981808 C18.3500197,28.2122394 18.5388231,27.4157627 18.639589,27.2282324 C18.7403549,27.0407022 18.878245,26.4580942 18.944008,25.9344845 C19.0108317,25.4108747 19.2134242,24.7355552 19.3958634,24.4352961 C19.5783027,24.1339834 19.7278605,23.708353 19.7278605,23.488163 C19.7278605,23.1173167 19.961213,22.5283874 20.805525,20.7679209 C20.9911464,20.382325 21.1428255,19.9819796 21.1428255,19.8808396 C21.1428255,19.7786462 21.3411752,19.4278171 21.584074,19.100166 C21.8269728,18.7725148 22.0263832,18.3742765 22.0263832,18.2151918 C22.0263832,18.0561072 22.1854872,17.7821866 22.3795941,17.6072988 C22.573701,17.4324111 22.732805,17.1953644 22.732805,17.0805285 C22.732805,16.9656925 22.891909,16.6886113 23.0870766,16.4663143 C23.2811835,16.2440172 23.4402875,16.0143453 23.4402875,15.9564006 C23.4402875,15.8984558 23.6365158,15.6150534 23.8751718,15.3253297 C24.1138279,15.035606 24.4521891,14.6120826 24.6261428,14.3845179 C25.639105,13.0612707 29.1786391,9.96912881 29.6803471,9.96912881 C29.7694453,9.96912881 30.0781071,9.7721167 30.3666157,9.53085588 C30.656185,9.28959506 31.0401561,9.09152941 31.2215346,9.09152941 C31.4029132,9.09152941 31.5991415,9.01462094 31.6574797,8.92085582 C31.7168785,8.82603716 32.1390345,8.63323921 32.5961934,8.48995767 C33.0544129,8.34772968 33.7470457,8.11595073 34.1352595,7.97582982 C35.7931234,7.37636516 43.5117896,7.46907674 44.5152056,8.10014762 C44.7379512,8.24026853 45.1728355,8.40672796 45.4814973,8.47099394 C45.7912198,8.53525992 46.1391273,8.70066581 46.2547428,8.83973318 C46.3703584,8.97774702 46.6026503,9.09152941 46.7713006,9.09152941 C47.9200316,9.09152941 52.0790106,14.0421171 52.0790106,15.4106665 C52.0790106,15.5750188 52.2275076,15.8436717 52.4099469,16.0069705 C52.5913255,16.1702693 52.7886145,16.6570051 52.8480133,17.0889568 C52.9074121,17.5209085 53.0696982,18.0508395 53.2075884,18.2678688 C53.3465392,18.4838447 53.5162502,19.0169363 53.5851952,19.450995 C53.655201,19.8861074 53.8111229,20.4392162 53.932042,20.680477 C54.0529611,20.9217379 54.2078223,21.5538623 54.2757067,22.0848468 C54.3425304,22.6158313 54.5217876,23.2384738 54.6713453,23.4681457 C54.8219638,23.6978176 54.9884927,24.3699765 55.0404667,24.9610129 C55.0988048,25.6173687 55.264273,26.1989232 55.4636833,26.4549336 C55.6440012,26.6846054 55.7924983,27.0407022 55.793559,27.2450891 C55.7956804,27.449476 55.8953856,27.7908232 56.0152439,28.0046919 C56.1351023,28.2185607 56.4713421,28.8506851 56.7630328,29.4101152 C57.7749344,31.3528443 59.4720439,32.679252 61.208399,32.885746 C65.7386207,33.4251588 68.0127475,32.5338634 69.7681951,29.5312724 L70.3749118,28.4945884 L70.3653655,25.2454689 C70.35688,22.2397173 70.3271806,21.9447259 69.9686662,21.2978519 C69.7554668,20.912256 69.5804524,20.5161247 69.5804524,20.4160383 C69.5804524,20.315952 69.3428571,19.8018241 69.0511664,19.2718931 C68.7605364,18.7430157 68.3659584,17.973931 68.1739729,17.5641037 C67.9819874,17.1532228 67.7486348,16.8171433 67.6542331,16.8171433 C67.5598314,16.8171433 67.4346696,16.6654335 67.3752707,16.4789567 C67.1578286,15.799423 62.4621387,11.3092326 61.6432833,10.9984381 C61.4809972,10.9373327 61.2412805,10.7592843 61.1108152,10.6033603 C60.9814106,10.4484898 60.7650292,10.3210114 60.6313818,10.3210114 C60.4977344,10.3210114 60.2378645,10.1714086 60.0543646,9.99019962 C59.8719253,9.80793708 59.4338589,9.56456918 59.0827694,9.44973325 C58.7306191,9.33384377 58.4431712,9.16738434 58.4431712,9.07783338 C58.4431712,8.98933596 58.3487695,8.91558811 58.2342146,8.91558811 C58.118599,8.91558811 57.6614402,8.74912869 57.2170096,8.54579533 C56.7736397,8.34140844 56.0120618,7.99268647 55.5262642,7.7682823 C55.0404667,7.54493167 54.2863136,7.31315272 53.8514293,7.2531009 C53.416545,7.19304908 52.9349902,7.03080381 52.7811896,6.89278998 C52.6284498,6.75477615 51.949606,6.56092467 51.2739442,6.46294538 C50.5982825,6.3649661 49.7274532,6.16795399 49.3392394,6.02783308 C48.9499649,5.88665862 48.2636962,5.76760852 47.8139622,5.76339436 C47.3642282,5.7591802 46.6525029,5.6348624 46.2314076,5.4873667 C45.3393644,5.17446511 37.2006636,4.98798841 34.4895312,5.21766028" id="path0-path"></path>
            <path d="M388.850494,5.12988778 C389.983768,4.77106017 389.893735,4.45672998 389.986461,42.3655051 L390.074498,78.5377713 L390.487108,79.3279268 C390.954874,80.2234364 391.537194,80.8271152 392.243616,81.1452845 C393.837838,81.8648528 394.310908,82.5085661 393.808139,83.2713296 C393.797216,83.2878724 393.786612,83.3037266 393.775938,83.3189303 L393.743315,83.3626289 L393.707935,83.402655 C393.45144,83.6641439 392.838349,83.6845193 388.516339,83.7938858 C385.74899,83.8634195 383.177869,83.9993262 382.802384,84.0941449 C382.426898,84.1900171 381.801089,84.3375128 381.412875,84.4239031 C380.616295,84.5998444 374.787784,84.653575 374.356082,84.4892226 C374.111062,84.3954575 374.076059,83.8455093 374.073937,80.1433673 L374.073269,79.5737059 C374.062906,74.2480626 373.924486,74.141943 372.358796,76.4812598 C371.20264,78.2090666 371.247189,78.1521754 369.568112,80.0011393 C368.887147,80.7512603 368.131933,81.4571325 367.889034,81.5698614 C367.646135,81.6825902 367.083968,82.0439547 366.640598,82.3726594 C365.747494,83.0353365 364.198881,83.8929186 363.895523,83.8929186 C363.788393,83.8929186 363.557162,84.0509497 363.381087,84.2437477 C363.170009,84.4755266 362.83589,84.5956303 362.405249,84.5956303 C362.017035,84.5956303 361.56518,84.7389118 361.300006,84.9464593 C361.051804,85.1392573 360.624345,85.2983419 360.347504,85.300449 C360.071723,85.3015025 358.976027,85.4595336 357.914273,85.651278 C355.434372,86.0990328 352.830369,86.0979793 350.210456,85.6491709 C349.092485,85.4574265 347.977697,85.2993954 347.732676,85.2983419 C347.488717,85.2983419 346.991252,85.1392573 346.628495,84.9464593 C346.265737,84.7536614 345.701448,84.5956303 345.373694,84.5956303 C345.04594,84.5956303 344.582417,84.4418133 344.3427,84.2553366 C344.102983,84.0678064 343.674463,83.8570982 343.390197,83.7875645 C343.105932,83.7169773 342.67529,83.5315542 342.432391,83.3745766 C341.617779,82.8488598 341.286842,82.6676508 340.619666,82.3821413 C340.255848,82.2262172 339.956733,82.0260445 339.956733,81.9364935 C339.956733,81.8479961 339.79975,81.7163035 339.606704,81.6457163 C339.127271,81.469775 335.940947,78.659982 335.483789,78.0110009 C335.280135,77.7212772 335.017083,77.4252323 334.900407,77.352538 C334.280962,76.9711563 330.764763,71.0966134 330.764763,70.4434181 C330.764763,70.3317428 330.653391,70.1484267 330.518683,70.0367514 C330.382914,69.9261296 330.220628,69.4878567 330.155925,69.0643334 C330.092284,68.64081 329.926816,68.20043 329.787865,68.0866476 C329.649975,67.9728652 329.492992,67.5904299 329.439957,67.2385473 C329.385862,66.8856112 329.192816,66.0838667 329.009316,65.4559565 C328.35805,63.2308785 328.090755,61.830723 327.918923,59.7489266 C327.8224,58.5900318 327.628293,57.1961975 327.48616,56.6515169 C327.13401,55.29561 327.13401,50.5062141 327.487221,49.1513607 C327.628293,48.6066802 327.826643,47.3308424 327.926348,46.3162827 C328.026053,45.3027766 328.227585,44.0848835 328.375021,43.6107902 C328.522457,43.1366969 328.645498,42.583588 328.64868,42.3823618 C328.651862,42.180082 328.808845,41.6986139 328.996587,41.3119644 C329.18433,40.9263685 329.341313,40.3637778 329.344495,40.0624652 C329.347677,39.7622061 329.499356,39.3270938 329.680735,39.0974219 C329.862113,38.8666965 330.067888,38.4210488 330.136833,38.1060401 C330.284269,37.4338811 331.694992,34.6556943 332.085327,34.2679914 C332.233824,34.1204957 332.355804,33.8455215 332.355804,33.6558842 C332.355804,33.4673004 332.463994,33.2702883 332.597642,33.2197184 C332.730228,33.1691484 333.102532,32.7171795 333.423922,32.2156941 C334.249141,30.9282674 337.820496,27.1776625 338.221438,27.1776625 C338.321144,27.1776625 338.62238,26.9996141 338.890736,26.7825847 C339.158031,26.5645018 339.528213,26.2895277 339.711713,26.1704776 L339.892113,26.0530572 C340.109937,25.9109773 340.423968,25.7053394 340.689672,25.5299248 C341.045004,25.2960388 341.522316,25.0474032 341.750365,24.9757624 C341.979475,24.9041217 342.357082,24.6986812 342.588313,24.5195793 C342.820605,24.3394239 343.140935,24.1919282 343.300039,24.1919282 C343.460203,24.1919282 343.747651,24.0834135 343.939637,23.9517209 C344.131622,23.8189748 344.566507,23.6514618 344.906989,23.5808746 C345.247472,23.5092338 345.651596,23.3406673 345.806457,23.2058141 C345.960258,23.0709609 346.645466,22.8908054 347.329613,22.8054686 C348.0127,22.7201318 348.796552,22.5052095 349.06915,22.3271611 C349.429499,22.0924191 351.930285,21.9701576 354.497383,21.9603767 L355.167202,21.9603767 C357.73015,21.9701576 360.179052,22.0924191 360.439784,22.3271611 C360.652983,22.517852 361.254396,22.7001145 361.966122,22.7875584 C362.613145,22.8676275 363.281382,23.0583184 363.452153,23.2110818 C363.622925,23.3648987 363.876431,23.4902701 364.016442,23.4902701 C364.155393,23.4902701 364.566942,23.6483012 364.929699,23.8410991 C365.292456,24.0338971 365.677488,24.1919282 365.785679,24.1919282 C365.892809,24.1919282 366.217381,24.3899938 366.50695,24.6312546 C366.795459,24.8725155 367.142306,25.0705811 367.277014,25.0705811 C367.411722,25.0705811 367.60795,25.2286122 367.711898,25.4214102 C367.815846,25.6142081 367.984496,25.7722392 368.087384,25.7722392 C368.289976,25.7722392 369.374005,26.7320148 370.25438,27.6896833 C370.557739,28.0194415 370.984137,28.4492861 371.203701,28.6431376 C371.422204,28.8380426 371.601461,29.1003743 371.601461,29.2278527 C371.601461,29.3553311 371.668285,29.4596316 371.748897,29.4596316 C371.830571,29.4596316 372.228331,29.9716524 372.632455,30.596402 C373.402519,31.7879566 373.799218,31.9375593 374.006053,31.1168511 C374.071777,30.8570948 374.10221,29.8722019 374.106205,28.5461922 L374.106325,27.9581371 C374.097158,24.1157004 373.902537,18.1643097 373.699513,17.7832401 C373.544651,17.4935164 373.367516,16.8719274 373.305995,16.4020483 C373.172348,15.3917028 372.520022,14.6363141 371.167637,13.9293883 C369.99451,13.315174 369.656149,12.9854158 369.656149,12.4544313 C369.656149,11.9592672 370.451669,11.0268837 370.883372,11.0152947 C371.035051,11.0110806 371.47736,10.8878163 371.866634,10.7413741 C372.254848,10.5959855 373.16068,10.4042411 373.87877,10.3167972 C374.623377,10.2251392 375.318131,10.0365554 375.496327,9.87641723 C375.667099,9.72260029 376.272755,9.54981961 376.842347,9.49292841 C377.410879,9.43603722 378.154425,9.24323927 378.492786,9.06519089 C378.832208,8.88608898 379.30952,8.73859328 379.55348,8.7364862 C379.7985,8.73437912 380.344757,8.57634801 380.769034,8.38565715 C381.192251,8.19391274 381.661078,8.03798872 381.808514,8.03798872 C381.957011,8.03798872 382.326132,7.88943948 382.629491,7.70823048 C382.931788,7.52702148 383.470621,7.32684875 383.825953,7.26468985 C384.180225,7.20147741 384.564196,7.03923214 384.67769,6.90332539 C384.791184,6.76741864 385.128485,6.60306629 385.426539,6.53774677 C385.724594,6.47242725 386.476626,6.15636504 387.096071,5.83608867 C387.715516,5.51475876 388.400724,5.22398153 388.618166,5.18921468 C388.67328,5.1803228 388.726016,5.16709876 388.776482,5.15248438 Z M361.901419,27.2061081 C361.150449,26.7162117 356.539614,26.6867125 355.612568,27.1660735 C355.228597,27.3630856 354.65158,27.5748473 354.329129,27.6348991 C354.005617,27.694951 353.698016,27.8150546 353.643921,27.9024985 C353.589826,27.9888888 353.235554,28.2175072 352.856886,28.4092516 C351.646635,29.0224122 348.458191,32.5222744 348.445462,33.2523781 C348.444402,33.3577322 348.291662,33.5800293 348.107101,33.7464887 C347.92148,33.9118946 347.719948,34.3143471 347.659489,34.6388377 C347.597968,34.9633282 347.480231,35.2541054 347.397497,35.2857117 C347.220362,35.3520847 346.144818,37.9764546 346.144818,38.3409797 C346.144818,38.4789935 345.985714,38.8867137 345.790547,39.2470247 C345.572044,39.6536914 345.437336,40.2373529 345.437336,40.7851941 C345.437336,41.3109109 345.303688,41.9166968 345.108521,42.2801683 C344.916535,42.6373186 344.727732,43.4790976 344.655605,44.2976987 C344.58772,45.0699441 344.418009,46.3236575 344.277998,47.0822068 C343.981004,48.692017 343.932212,58.1138314 344.213296,59.5740388 C344.306637,60.0565604 344.463619,61.1627782 344.563324,62.0319492 C344.66303,62.9011203 344.899564,63.9367508 345.090489,64.3339356 C345.281414,64.7311205 345.437336,65.4022259 345.438397,65.8268028 C345.438397,66.2872001 345.580529,66.82872 345.791607,67.1721743 C345.985714,67.4882365 346.144818,67.8864749 346.144818,68.0571485 C346.144818,68.227822 346.303922,68.6766304 346.498029,69.055905 C346.692136,69.4341261 346.85124,69.8355251 346.85124,69.9472005 C346.85124,70.0588758 347.006101,70.3443853 347.193844,70.5824855 C347.382648,70.8205857 347.588422,71.2198776 347.652064,71.4706203 C347.715705,71.721363 347.919358,72.0637637 348.10498,72.2302231 C348.290601,72.3977361 348.44228,72.6326757 348.44228,72.7548864 C348.44228,74.2414323 354.347161,78.9760442 356.201253,78.9760442 C356.510975,78.9760442 357.077386,79.1340753 357.458175,79.3279268 C358.401131,79.8051807 360.440845,79.8051807 361.435775,79.3279268 C361.82505,79.1414501 362.461466,78.9844725 362.85074,78.9802584 C363.238954,78.9749907 363.756572,78.8569941 363.999471,78.7179267 C364.24237,78.5788594 364.606188,78.3902756 364.806659,78.2986175 C365.838714,77.8276848 366.922742,76.9363894 368.575303,75.2012079 C369.087618,74.6628486 370.363632,72.7675289 370.363632,72.5452318 C370.363632,72.4356636 370.482429,72.2491869 370.627744,72.1290832 C370.773059,72.0100331 370.978834,71.5854562 371.085964,71.1861643 C371.193094,70.7868724 371.384019,70.3412247 371.509181,70.1968896 C371.635403,70.051501 371.796629,69.6564232 371.867695,69.3192902 C371.938762,68.9811036 372.095744,68.5070103 372.216663,68.2657495 C372.336522,68.0244887 372.485019,67.450309 372.545478,66.9909653 C372.605938,66.5316215 372.774588,65.9742985 372.920964,65.7541085 C373.088553,65.4991517 373.228565,64.6773899 373.301753,63.5163881 C373.37494,62.362761 373.523438,61.4851616 373.702695,61.1543498 C373.912639,60.7662836 374.0195,57.323285 374.02495,53.7331016 L374.024566,52.9625835 C374.015536,49.3662091 373.905214,45.8303462 373.69527,45.262742 C373.534044,44.8286833 373.353727,43.7709284 373.294328,42.9133463 C373.234929,42.0557642 373.069461,41.1075775 372.926267,40.8062649 C372.784134,40.5049523 372.585785,39.8317398 372.48714,39.3102371 C372.388496,38.7887345 372.234695,38.2756601 372.146657,38.1692525 C372.05862,38.0628449 371.931337,37.6825167 371.863452,37.3243129 C371.796629,36.9650555 371.635403,36.5847273 371.505999,36.4772662 C371.376594,36.3708586 371.214308,36.032672 371.146424,35.7250381 C371.078539,35.4184578 370.83564,34.8916874 370.60547,34.555608 C370.375299,34.2184749 370.186496,33.8866096 370.186496,33.8181295 C370.186496,33.0458841 365.639303,28.4060909 364.883029,28.4060909 C364.718621,28.4060909 364.448144,28.2564882 364.281616,28.0731721 C364.115087,27.8909095 363.611257,27.6865226 363.163645,27.619096 C362.716032,27.552723 362.1475,27.3662463 361.901419,27.2061081 Z" id="Combined-Shape"></path>
            <path d="M247.137696,10.4326867 C246.627502,10.9836885 246.360208,11.4556747 246.276413,11.9539995 C246.208528,12.3511843 246.020786,12.8769011 245.8585,13.1223761 C245.32391,13.9325489 245.131925,14.2644142 244.86463,14.8417545 C244.719315,15.1557096 244.523086,15.4127736 244.428685,15.4127736 C244.334283,15.4127736 244.14548,15.6782658 244.00865,16.0027564 C243.753023,16.6095958 240.693983,19.8028776 240.36835,19.8028776 C240.267584,19.8028776 240.041657,19.9408915 239.864521,20.109458 C239.095518,20.8437758 236.907308,22.0848468 236.381204,22.0848468 C236.229524,22.0848468 235.878435,22.2523597 235.601594,22.4556931 C235.155042,22.7833443 234.782739,22.8370748 232.382389,22.9160904 C230.631184,22.9750887 229.573673,23.0836034 229.401841,23.2216172 C229.256526,23.3396137 229.006202,23.4828953 228.844977,23.5387329 C228.472673,23.669372 228.276445,24.7861251 228.438731,25.8586295 C228.596774,26.9037419 228.844977,27.0017212 231.346092,27.0017212 C232.855459,27.0017212 233.325346,27.0607195 233.543849,27.2777489 C233.696588,27.4294587 233.839782,27.5674725 233.862057,27.5853827 C233.884331,27.6022394 233.947973,37.9279917 234.003129,50.5304455 C234.104955,73.8242302 234.179204,76.3811735 234.790163,77.5695674 C234.914265,77.8118817 235.076551,78.2870286 235.149739,78.6252151 C235.221866,78.9634017 235.430822,79.4280132 235.612201,79.6587386 C235.79464,79.8884104 235.943137,80.2055262 235.943137,80.3625038 C235.943137,80.5194813 236.102241,80.7459926 236.296348,80.8671497 C236.491516,80.9872534 236.65062,81.1558199 236.65062,81.2401031 C236.65062,81.4855781 238.324394,83.190207 238.565171,83.190207 C238.68503,83.190207 238.828223,83.3092571 238.88444,83.4535921 C238.940657,83.5989808 239.081729,83.7169773 239.198405,83.7169773 C239.315082,83.7169773 239.67996,83.915043 240.008775,84.1563038 C240.338651,84.3975646 240.813842,84.5956303 241.065226,84.5956303 C241.31555,84.5956303 241.712249,84.7273228 241.944541,84.8895681 C243.321321,85.8472366 252.425253,85.8514508 253.799911,84.8948358 C254.036446,84.7304835 254.478755,84.5956303 254.782113,84.5956303 C255.107746,84.5956303 255.464139,84.4523487 255.649761,84.2490154 C255.823714,84.0583245 256.134498,83.8497234 256.340272,83.7854575 C257.057301,83.5642139 260.154526,80.7333501 260.161951,80.2929701 C260.163011,80.1970979 260.274384,79.9073742 260.410153,79.6503102 C261.062479,78.4092393 259.726006,77.7760614 258.285584,78.6441789 C257.982226,78.8264414 257.535674,78.9760442 257.292775,78.9760442 C257.049876,78.9760442 256.648934,79.1340753 256.401792,79.3279268 C255.736738,79.8473224 253.023484,79.8473224 252.69679,79.3279268 C252.57481,79.1340753 252.349943,78.9760442 252.195082,78.9760442 C251.905513,78.9760442 251.146056,78.2786003 251.146056,78.013108 C251.146056,77.9309318 251.032562,77.7370803 250.892551,77.5843169 C250.010054,76.6150595 250.001568,76.3874947 249.952776,51.1910155 C249.907166,27.8814277 249.909288,27.7044328 250.261438,27.3546573 C250.596617,27.0206849 250.846941,27.0017212 254.935914,27.0017212 C260.382575,27.0017212 260.161951,27.0775761 260.161951,25.1948989 C260.161951,22.9476966 260.199075,22.9634997 255.069561,22.9634997 C252.625724,22.9634997 250.805574,22.8876448 250.474637,22.7738624 L249.926259,22.5831715 L249.873224,16.5537581 L249.82019,10.5243448 L249.391669,10.0713223 C248.716008,9.35702166 248.029739,9.4665899 247.137696,10.4326867" id="path0-path"></path>
            <path d="M109.329112,22.0585083 C108.648147,22.1217207 107.892934,22.3039832 107.648974,22.4620143 C107.406075,22.6200454 106.829058,22.802308 106.367656,22.866574 C105.906255,22.9318935 105.527587,23.0625325 105.527587,23.1584047 C105.527587,23.2542769 105.288931,23.4154687 104.99724,23.5166086 C104.70555,23.6177485 104.466894,23.7620836 104.466894,23.8368849 C104.466894,23.9127399 104.23248,24.070771 103.946093,24.1887675 C103.037079,24.5627745 100.553996,27.1913585 100.08623,28.2743983 C99.9716749,28.5398906 99.8062067,28.7579735 99.7171085,28.7579735 C99.6280102,28.7579735 99.500727,28.9750029 99.4339033,29.2404952 C99.3681403,29.5059874 99.2090363,29.8420669 99.0828138,29.986402 C98.9555306,30.1317906 98.7932445,30.4478528 98.7211173,30.6891136 C98.5620133,31.2211517 97.5639008,32.796195 97.3846436,32.796195 C97.1215916,32.796195 97.0102188,32.1113936 96.8574789,29.548129 C96.7004963,26.8963671 96.2815224,23.4786811 96.0725658,23.1436552 C95.933615,22.919251 94.9206527,22.9034479 94.9206527,23.1246914 C94.9206527,23.2142424 94.6554794,23.3743806 94.3319679,23.4797347 C94.0084564,23.5861423 93.4346212,23.8295102 93.0570143,24.020201 C92.6794075,24.2119454 92.2774047,24.3678695 92.1628498,24.3678695 C92.0472342,24.3678695 91.9104047,24.4784912 91.8584307,24.6133444 C91.8064568,24.7492512 91.4426389,24.9136035 91.0491216,24.9799766 C90.6566651,25.0452961 90.1411681,25.2507366 89.9046334,25.4361597 C89.6670381,25.6215829 89.3435266,25.7722392 89.1844226,25.7722392 C89.0263792,25.7722392 88.5840701,25.9302703 88.2032811,26.1241218 C87.8224922,26.3169197 87.3653333,26.4749508 87.1892582,26.4749508 C87.0121224,26.4749508 86.6939144,26.5950545 86.4828364,26.7425502 C86.2706977,26.8900459 85.636403,27.0944328 85.0731748,27.1976798 C84.5099466,27.2998732 83.920201,27.4979389 83.7642791,27.6370062 C83.6072964,27.7760736 83.0504324,27.9383189 82.5264498,27.9973171 C82.0024672,28.0563154 81.2790743,28.252274 80.9184385,28.4313759 C80.5578028,28.6104778 80.0009387,28.7611341 79.6806093,28.7642948 C79.0113117,28.7727231 77.1996473,29.5007197 77.0978208,29.8030859 C76.8485578,30.5468856 77.2696531,31.1316007 78.4894506,31.734226 C80.0847335,32.523328 80.6638721,33.2460569 81.1295165,35.0297013 C81.5665222,36.7037774 81.6216783,78.0647315 81.1889154,78.9760442 C81.0732998,79.2183586 80.9364703,79.6197576 80.8834357,79.8694467 C80.7317565,80.5805867 79.7537971,81.6752155 79.0516181,81.9196369 C78.7015892,82.0407941 78.2847367,82.258877 78.124572,82.4021585 C77.9644073,82.5464936 77.7384796,82.6634366 77.6218033,82.6634366 C76.789159,82.6634366 77.0469075,84.3670119 77.9028871,84.5271501 C78.7514418,84.6851812 84.5597991,84.5050258 87.5021628,84.2289981 C89.5015699,84.0414679 90.3734599,84.0467356 92.80563,84.2563902 C94.4072771,84.394404 97.3040309,84.5071328 99.2440392,84.5071328 L102.770845,84.5071328 L102.876914,84.0688599 C103.118752,83.0743175 101.985932,81.9617785 100.733253,81.9617785 C100.303672,81.9617785 98.4570047,80.4762861 98.4570047,80.1307248 C98.4570047,80.0085141 98.3010827,79.7303793 98.1112186,79.5122964 C97.5585973,78.8791185 97.5511725,78.6041443 97.6073892,57.9052303 C97.6572418,39.4103235 97.6805771,38.115522 97.9733284,37.5845375 C98.1451608,37.2716359 98.3339642,36.6395115 98.3923024,36.1791142 C98.4867041,35.4342609 98.9173456,34.2448135 99.3628369,33.4989066 C99.448753,33.353518 99.6152819,33.0374558 99.7330189,32.796195 C100.352464,31.5203572 102.745388,29.9295108 104.316275,29.7504089 C105.82246,29.5786817 107.996882,29.805193 108.367064,30.1728787 C108.536774,30.3414452 108.856043,30.5363502 109.077728,30.6058839 C109.533826,30.7491654 110.654979,31.773207 110.654979,32.046074 C110.654979,32.1451069 110.771656,32.3231552 110.914849,32.4411518 C111.225632,32.6971622 111.985089,34.2995976 112.150557,35.048665 C112.215259,35.3415493 112.382849,35.6755217 112.5218,35.7903577 C112.661811,35.9051936 112.776366,36.2117739 112.776366,36.4709449 C112.776366,36.730116 112.974716,37.209477 113.217615,37.5371281 C113.461574,37.8647793 113.659924,38.2082335 113.659924,38.3019987 C113.659924,38.5664374 115.297634,39.9992527 115.693273,40.0803754 C117.251432,40.3995982 118.423498,40.4923098 119.051429,40.3448141 C119.440703,40.2542096 120.037873,40.1762476 120.377295,40.1720334 C120.761266,40.1667657 121.299038,39.9634323 121.79226,39.6368347 C122.229266,39.347111 122.799919,38.9752112 123.059789,38.8108588 C123.319659,38.6465065 123.661202,38.2735531 123.818185,37.9806688 C123.976228,37.688838 124.307165,37.1125512 124.554306,36.7006168 C126.046702,34.2121537 125.812289,30.6627751 123.929558,27.2461426 C123.558315,26.5718766 121.426321,24.433189 120.872639,24.1792857 C120.260619,23.8979903 119.349483,23.3838625 119.098099,23.178422 C118.975059,23.0772821 118.404406,22.9097691 117.828449,22.8044151 C117.253553,22.699061 116.656383,22.5009954 116.502582,22.3640351 C116.175889,22.0722043 111.379433,21.8688709 109.329112,22.0585083" id="path0-path"></path>
            <path d="M153.068434,21.9796743 C156.894592,21.9935984 160.751278,22.1650212 161.09507,22.387213 C161.351758,22.5526188 162.207738,22.7285601 163.188879,22.8181111 C164.18381,22.9097691 164.946448,23.0678002 165.093885,23.2142424 C165.228593,23.3480421 165.658174,23.5113409 166.048509,23.5766604 C166.438844,23.6419799 166.802662,23.7662977 166.855696,23.8516345 C166.908731,23.9369713 167.287399,24.096056 167.695766,24.2035171 C168.105193,24.3120318 168.55917,24.5058833 168.705546,24.6344153 C168.850861,24.7618937 169.209375,24.9241389 169.501066,24.9936726 C169.792757,25.0632063 170.15021,25.2328264 170.296586,25.3687331 C170.441901,25.5056934 171.118623,26.0061252 171.798528,26.4812721 C173.075603,27.3725675 174.009013,28.1511341 174.009013,28.3249683 C174.009013,28.3786989 174.296461,28.7158319 174.648611,29.0740357 C175.000761,29.431186 175.367761,29.9421533 175.463224,30.2097526 C175.558686,30.4773519 175.787796,30.7765575 175.972357,30.8745368 C176.155857,30.9725161 176.306475,31.1969202 176.306475,31.3739151 C176.306475,31.5509099 176.465579,31.8964713 176.660747,32.1419462 C176.854854,32.3874212 177.013958,32.6940016 177.015018,32.8235871 C177.015018,32.9531726 177.174122,33.3187512 177.368229,33.6348134 C177.562336,33.9508756 177.72144,34.3849344 177.72144,34.5998567 C177.722501,34.814779 177.869937,35.2319811 178.051316,35.5269725 C178.250726,35.851463 178.431044,36.6068517 178.510596,37.4423095 C178.581662,38.2008588 178.769405,39.1448312 178.927449,39.539909 C179.185197,40.1815153 179.227625,42.2791148 179.324148,59.1347123 L179.327059,59.6363456 C179.422602,76.0450319 179.466779,78.1217702 179.726151,78.9707765 C179.887376,79.4986004 180.018902,80.0285314 180.018902,80.148635 C180.018902,80.5342309 180.904581,81.6815367 181.665098,82.2831084 C182.81489,83.1912605 182.832922,84.240587 181.702223,84.5218824 C180.713656,84.7684109 173.69823,84.5134541 173.364111,84.2195162 C173.183794,84.0604316 172.599351,83.876062 172.063701,83.8096889 C171.185447,83.6990671 169.93595,83.2639548 169.235893,82.8235748 C169.089517,82.7319168 168.732063,82.5464936 168.440372,82.4116404 C167.847445,82.1377198 166.229887,80.6574951 166.229887,80.3898958 C166.229887,80.2950771 166.077147,80.137046 165.891526,80.0380132 C165.704844,79.9379269 165.49907,79.6197576 165.435428,79.3300339 C165.370726,79.0403102 165.213743,78.7432117 165.08646,78.6705174 C164.958116,78.5967696 164.769312,78.2606901 164.665364,77.9225035 C163.791353,75.0674082 163.46572,74.6554738 162.917342,75.7111216 C162.584284,76.3506208 161.362365,78.1911564 160.981576,78.6252151 C160.067258,79.669274 157.904504,81.6098959 157.655242,81.6098959 C157.540687,81.6098959 157.311577,81.7573916 157.147169,81.9386006 C156.982762,82.1187561 156.333617,82.5254228 155.705687,82.8425385 C155.076696,83.1596543 154.562259,83.47677 154.562259,83.5484108 C154.562259,83.6200516 154.280115,83.7306733 153.934329,83.7949393 C153.589604,83.8592053 153.263971,84.0225041 153.211997,84.1573573 C153.158962,84.2943176 152.751656,84.4502416 152.293436,84.5092399 C151.839459,84.5682382 151.141523,84.7694645 150.742702,84.9569947 C150.342821,85.144525 149.826263,85.2983419 149.592911,85.300449 C149.43321,85.3011733 148.882963,85.376094 148.209636,85.4851563 L147.831768,85.54779 C147.638338,85.5805591 147.439371,85.615326 147.240293,85.651278 C145.164515,86.0263385 142.080019,86.1127289 140.650204,85.8356477 C140.183499,85.7460967 139.124927,85.5796373 138.298647,85.467962 C137.472367,85.3552331 136.468951,85.1129187 136.069069,84.9296027 C135.670248,84.745233 135.103838,84.5956303 134.812147,84.5956303 C134.519396,84.5956303 134.077087,84.4365456 133.828885,84.2426941 C133.580682,84.0488426 133.136252,83.8423487 132.841379,83.7833504 C132.547567,83.7254056 132.16996,83.5283935 132.004492,83.346131 C131.839024,83.1638685 131.632189,83.0153192 131.546272,83.0153192 C131.009561,83.0153192 127.514577,79.8557507 127.514577,79.371122 C127.514577,79.2499648 127.316227,78.9781513 127.073328,78.7684967 C126.830429,78.5577885 126.631019,78.2743861 126.631019,78.1384793 C126.631019,78.0015191 126.471915,77.689671 126.277808,77.444196 C126.08264,77.1987211 125.923536,76.8700164 125.922476,76.7140923 C125.922476,76.5581683 125.802617,76.2041786 125.658363,75.928151 C125.513048,75.6510698 125.311516,74.9093771 125.20969,74.2783062 C125.107863,73.6472354 124.929667,72.964541 124.814051,72.7612077 C124.53721,72.278686 124.532967,69.0011209 124.807687,68.5217599 C124.92012,68.3236943 125.10256,67.5166821 125.21075,66.7265266 C125.320002,65.9374246 125.524716,65.0714141 125.665788,64.8027613 C125.80686,64.5341084 125.922476,64.1959218 125.923536,64.0515867 C125.925658,63.9061981 126.084762,63.5511549 126.277808,63.2614312 C126.470854,62.9717075 126.628898,62.608236 126.629958,62.4544191 C126.631019,62.3006021 126.788002,62.0330028 126.979987,61.8602221 C127.171973,61.6874414 127.380929,61.3798075 127.444571,61.1743671 C127.643981,60.5296002 128.794834,59.2790474 131.69583,56.5556447 C131.920697,56.3449366 132.298304,56.0678554 132.535899,55.9414305 C132.597862,55.908244 132.660072,55.8747538 132.72241,55.8410327 L133.096979,55.6365169 C134.406465,54.9150843 135.664282,54.1559424 135.741315,54.0324148 C135.798592,53.9418103 136.026641,53.8670089 136.248326,53.8670089 C136.471072,53.8670089 136.78928,53.7163525 136.95687,53.5330365 C137.124459,53.3497204 137.55404,53.146387 137.912554,53.0810675 C138.271069,53.015748 138.729288,52.8566633 138.931881,52.7281314 C139.432528,52.407855 141.863637,51.5839862 142.305947,51.5839862 C142.503236,51.5839862 142.799169,51.4354369 142.964637,51.2531744 C143.174655,51.0235025 143.581961,50.9002383 144.311718,50.8475612 C144.917374,50.8043661 145.489088,50.6558168 145.672588,50.4946251 C145.846541,50.3418617 146.476593,50.1627598 147.073764,50.0953332 C147.669873,50.0289601 148.375235,49.8625007 148.640408,49.7255404 C148.905581,49.5885801 149.323494,49.4769048 149.569575,49.4769048 C149.814596,49.4769048 150.342821,49.3241414 150.742702,49.1355576 C151.141523,48.9480274 151.998563,48.744694 152.645586,48.6846422 C153.483534,48.6066802 153.912054,48.4770947 154.131618,48.2358339 C154.359667,47.9850912 154.675754,47.8965938 155.34399,47.8965938 C155.90934,47.8965938 156.493782,47.7659547 156.907453,47.5457647 C157.27021,47.3529668 157.717822,47.1949357 157.901322,47.1949357 C158.085883,47.1949357 158.583348,47.0379581 159.006565,46.8472672 C159.430842,46.6565764 159.956946,46.4985453 160.177571,46.4964382 C160.397134,46.4943311 160.713221,46.3341929 160.87975,46.141395 C161.046278,45.9475435 161.30933,45.7895124 161.464192,45.7895124 C161.619053,45.7895124 162.083637,45.533502 162.496246,45.2195469 L163.245096,44.6485278 L163.191001,39.0299953 C163.14433,34.2111002 163.095538,33.3356078 162.845215,32.8836389 C162.68505,32.5939152 162.494125,31.8827752 162.421998,31.3033278 C162.304261,30.3719979 161.952111,29.3943121 161.439796,28.5820322 C161.348576,28.4366436 161.167197,28.0921358 161.036732,27.8161081 C160.699432,27.0975934 159.176276,25.6078869 158.645929,25.4761943 C158.398788,25.4140354 158.075276,25.2275587 157.926779,25.0621528 C156.984883,24.0096656 150.659968,24.0360041 149.280006,25.0969196 C149.047714,25.2760215 148.768752,25.4214102 148.660561,25.4224637 C148.065512,25.4245708 146.015192,27.7792342 145.790325,28.717939 C145.727744,28.9813242 145.551669,29.3384744 145.399989,29.5123087 C145.245128,29.6893035 145.065871,30.3677837 144.990562,31.0631206 C144.917374,31.7426543 144.768877,32.4063849 144.659625,32.537024 C144.550374,32.667663 144.350964,33.43148 144.216256,34.234278 C143.91714,36.0231901 143.405886,37.9311523 143.13753,38.2588035 C143.028279,38.3926032 142.884025,38.6791662 142.817201,38.8951421 C142.642186,39.461947 141.180551,40.8547278 140.626869,40.9822062 C140.366999,41.042258 139.956511,41.2171458 139.712551,41.3720162 C139.043254,41.7976467 135.301127,41.7839507 134.868364,41.3541061 C134.699714,41.1865931 134.411205,41.0485793 134.228766,41.0485793 C134.046327,41.0485793 133.674023,40.8505136 133.402486,40.6081992 C133.129888,40.3648313 132.687578,39.9718607 132.420284,39.7327069 C132.152989,39.4935532 131.934486,39.2291145 131.934486,39.1437777 C131.934486,39.0584409 131.78811,38.8003234 131.608853,38.5706515 C130.530128,37.1810314 130.532249,32.8225335 131.613096,31.4118425 C131.790232,31.1811171 131.934486,30.8829651 131.934486,30.7491654 C131.934486,30.1202016 134.744263,27.1618594 136.283329,26.1704776 C136.46789,26.0514275 136.909138,25.7638109 137.26341,25.5299248 C137.618742,25.2960388 138.096054,25.0474032 138.324103,24.9757624 C138.553213,24.9041217 138.93082,24.6986812 139.162051,24.5195793 C139.394343,24.3394239 139.753918,24.1919282 139.962875,24.1919282 C140.170771,24.1919282 140.502768,24.0802528 140.698996,23.9432926 C140.896285,23.8063323 141.371476,23.6398728 141.755447,23.5724462 C142.138357,23.5050196 142.630519,23.3396137 142.847961,23.2047605 C143.065403,23.0699073 143.919261,22.8908054 144.745542,22.8075757 C145.577125,22.7232924 146.439469,22.531548 146.678125,22.3766775 C146.99103,22.1722907 147.675177,22.0785255 149.200454,22.0279556 C150.110529,21.9982457 151.113775,21.9827798 152.140238,21.9794506 Z M163.182515,59.0325189 C163.132875,49.1682964 163.162892,49.1590516 162.082015,50.0982732 L161.99666,50.1722417 C161.76755,50.3692538 161.445099,50.5304455 161.280692,50.5304455 C161.116284,50.5304455 160.842625,50.6832089 160.672914,50.8696856 C160.503203,51.0551088 160.034377,51.2626563 159.629192,51.3300829 C159.225068,51.398563 158.704267,51.6018964 158.471975,51.7820518 C158.240744,51.9632608 157.920415,52.1107565 157.76025,52.1107565 C157.600085,52.1107565 157.312638,52.2192712 157.120652,52.3520173 C156.929727,52.4847635 156.522421,52.6470087 156.21588,52.7133818 C155.910401,52.7797549 155.520066,52.9873024 155.349294,53.1748326 C155.163673,53.3771124 154.80834,53.5161798 154.47104,53.5161798 C154.158135,53.5161798 153.700976,53.6742109 153.453835,53.8670089 C153.206693,54.0598068 152.944702,54.2178379 152.872575,54.2178379 C152.75636,54.2178379 151.907935,54.6193385 151.028441,55.0734035 L150.676648,55.2570059 C150.326522,55.4417574 149.986382,55.6274754 149.701101,55.7918277 L149.554812,55.8762448 C149.115503,56.1289081 148.683154,56.3702215 148.55237,56.4365946 C148.405995,56.5103425 147.968989,56.7947984 147.579714,57.068719 C147.19044,57.3415861 146.673882,57.701897 146.432044,57.8673029 C145.585611,58.4478038 143.027218,61.1280113 142.795987,61.6790131 C142.666582,61.9855934 142.437473,62.337476 142.286854,62.4628474 C142.135175,62.5871652 142.011074,62.7957662 142.011074,62.9264053 C142.011074,63.0570443 141.858334,63.5016385 141.670591,63.9146265 C140.604594,66.2692899 140.610959,69.4920709 141.687562,71.9531419 C142.036531,72.7517258 142.123507,72.9065963 142.676129,73.7220368 C143.188444,74.4763719 145.143302,75.9913634 145.603643,75.9913634 C145.740472,75.9913634 146.055498,76.1504481 146.3037,76.3442995 C147.273174,77.1017953 154.901681,77.0986347 155.714172,76.3400854 C155.919947,76.148341 156.242398,75.9903099 156.430141,75.9882028 C156.740924,75.9850422 157.376279,75.6226242 158.711692,74.6860265 C159.876334,73.8695325 161.799371,71.6676324 161.807856,71.1398085 C161.808917,71.0312938 161.922411,70.8500848 162.05818,70.7384095 C162.195009,70.6256807 162.358356,70.3191003 162.421998,70.0578222 C162.4867,69.7965441 162.693535,69.2592384 162.883399,68.8652142 C162.908775,68.8123751 162.932273,68.7611256 162.954014,68.7075614 L162.979266,68.6419235 C163.142093,68.1935982 163.195458,67.4971787 163.20017,64.553621 L163.200184,63.6011405 C163.198641,62.406599 163.191882,60.9122948 163.182515,59.0325189 Z" id="Combined-Shape"></path>
            <path d="M293.981856,21.9817852 C294.077292,21.9822122 294.173012,21.9827905 294.268913,21.9835167 L294.845667,21.9896237 C294.941878,21.9909288 295.038064,21.9923753 295.134119,21.9939601 L295.708071,22.0051014 C298.181273,22.0603425 300.426849,22.2046298 300.624691,22.3808917 C300.797584,22.5357622 301.527341,22.7159177 302.357864,22.8075757 C303.14596,22.8960731 303.965876,23.0772821 304.179075,23.2110818 C304.393335,23.345935 304.846251,23.5123944 305.186734,23.5829816 C305.526156,23.6525153 305.962101,23.8189748 306.154086,23.9517209 C306.346072,24.0834135 306.63352,24.1919282 306.792624,24.1919282 C306.952788,24.1919282 307.279482,24.3457451 307.519199,24.5322218 C307.758915,24.7197521 308.186375,24.9283531 308.470641,24.9947262 C308.754907,25.0621528 309.12721,25.2380941 309.297982,25.3855898 C309.468753,25.5330855 309.766808,25.7395794 309.959854,25.8449335 C312.163975,27.0417557 316.289012,31.0220325 317.053772,32.6876803 C317.169388,32.9405301 317.330613,33.1470241 317.412286,33.1470241 C317.49396,33.1470241 317.560784,33.2555387 317.560784,33.3872313 C317.560784,33.5189239 317.709281,33.8149689 317.890659,34.0456943 C318.070977,34.2753661 318.280994,34.6620156 318.356304,34.9032764 C318.431613,35.1445372 318.64163,35.5311866 318.823009,35.7608585 C319.004387,35.9915839 319.151824,36.3487342 319.151824,36.5562817 C319.151824,36.7627757 319.281228,37.1146583 319.438211,37.3380089 C319.769147,37.8068345 320.299494,39.6737086 320.641037,41.5753496 C320.771503,42.3001856 320.973034,43.2083377 321.089711,43.5949871 C321.628543,45.3828457 321.087589,48.5803417 320.119176,49.3367839 L319.602618,49.74029 L279.818129,49.9162313 L279.830857,51.4965423 C279.838282,52.3994267 279.939048,53.2517411 280.06421,53.4835201 C280.186189,53.7079242 280.345293,54.6571644 280.418481,55.5927085 C280.499094,56.6304461 280.659259,57.4669574 280.827909,57.7324497 C280.980649,57.9726569 281.159906,58.5636933 281.22673,59.0472685 C281.293553,59.5297901 281.461143,60.0997556 281.600094,60.3136244 C281.737984,60.5274931 281.851478,60.8077349 281.851478,60.9352134 C281.851478,61.0626918 282.010582,61.4777868 282.204689,61.8560079 C282.398796,62.2352826 282.5579,62.6356281 282.5579,62.7473034 C282.5579,62.8579251 282.75731,63.2393069 283.000209,63.5954036 L283.079351,63.7148208 C283.284959,64.0340798 283.442518,64.3510264 283.442518,64.4540393 C283.442518,64.5709823 283.760726,65.1209305 284.150001,65.6772 C284.538215,66.2334695 284.856423,66.7360084 284.856423,66.7928996 C284.856423,66.9646268 286.461252,68.899981 287.596194,70.0978568 C288.404442,70.9512247 290.906618,72.9434702 291.33726,73.0772699 C291.546216,73.1425894 291.762598,73.3111559 291.817754,73.4523303 C291.871849,73.5935048 292.074441,73.7083407 292.266427,73.7083407 C292.459473,73.7083407 292.830716,73.9064064 293.093768,74.1476672 C293.355759,74.388928 293.698363,74.5859401 293.854285,74.5859401 C294.010207,74.5859401 294.494944,74.7555602 294.93301,74.9631077 C296.585571,75.7458884 296.821045,75.8227969 298.059935,75.9745068 C298.757871,76.0608971 299.512024,76.2579092 299.733709,76.4127797 C300.321333,76.8204999 307.310242,76.8268212 308.097277,76.4201545 C308.384725,76.2705517 309.200398,76.0756467 309.908941,75.9860957 C310.618545,75.8975983 311.432097,75.7037468 311.719545,75.5562511 C312.005932,75.409809 312.346415,75.2886518 312.47688,75.2886518 C312.606284,75.2886518 313.025258,75.1306207 313.407108,74.9378227 C313.787897,74.7450248 314.232328,74.5869937 314.392492,74.5869937 C314.553718,74.5869937 314.875108,74.439498 315.106339,74.2593425 C315.338631,74.0802406 315.721541,73.8726931 315.958076,73.7989452 C316.19461,73.7251974 316.74405,73.4765618 317.177873,73.2479435 C319.052119,72.2576152 320.638916,73.2036947 319.506095,74.634403 C319.310928,74.879878 319.151824,75.1285136 319.151824,75.1875119 C319.151824,75.3876846 317.283943,77.3367349 315.774576,78.712659 C314.643877,79.7430218 312.087605,81.6098959 311.806522,81.6098959 C311.672874,81.6098959 311.42149,81.7584452 311.247536,81.9396542 C311.074643,82.1208632 310.7331,82.3284107 310.490201,82.4000515 C310.247302,82.4716922 309.959854,82.6002242 309.852724,82.685561 C309.380716,83.0595679 308.048485,83.6716751 307.477832,83.7780827 C307.135228,83.8423487 306.718375,84.0520033 306.552907,84.2448012 C306.331222,84.5018651 306.031046,84.5956303 305.428572,84.5956303 C304.976717,84.5956303 304.279841,84.745233 303.87996,84.9274956 C301.857217,85.8525043 295.168484,86.2359931 291.328774,85.6470639 C290.075034,85.4553195 288.802202,85.2972884 288.499905,85.2962348 C288.197607,85.2962348 287.711809,85.1655958 287.420119,85.0065111 C287.128428,84.84848 286.42731,84.6588427 285.863021,84.5872019 C285.297671,84.5145076 284.696258,84.330138 284.525486,84.1763211 C284.354715,84.0225041 283.941044,83.8434022 283.606926,83.7791362 C283.04794,83.669568 281.96179,83.2165455 281.321131,82.8246284 C281.174756,82.7361309 280.856548,82.5844211 280.613649,82.4874953 C280.37075,82.3916231 280.052542,82.233592 279.906166,82.1356127 C279.760851,82.038687 279.442643,81.8637992 279.199744,81.7479098 C278.956846,81.6309667 278.532568,81.3549391 278.257849,81.1336955 C277.983129,80.9135055 277.644768,80.7322965 277.506878,80.7322965 C277.367927,80.7322965 277.254433,80.6553881 277.254433,80.5616229 C277.254433,80.4668043 277.03593,80.2750599 276.768635,80.1338854 C276.50134,79.992711 276.054788,79.6629527 275.776887,79.4016746 C275.498985,79.1403965 274.94,78.6747316 274.533754,78.3670977 C273.526095,77.6032807 273.019084,77.081778 271.474714,75.2212252 C270.743896,74.3404652 270.054446,73.5418813 269.942012,73.4449556 C269.829579,73.3490834 269.636532,73.0720022 269.513492,72.8307413 C269.044665,71.9131074 268.673423,71.33366 268.474012,71.205128 C268.359457,71.1324337 268.216264,70.8448171 268.154744,70.5656288 C268.092163,70.2864406 267.887449,69.9187549 267.698645,69.7491348 C267.509842,69.5795148 267.354981,69.2897911 267.354981,69.1075285 C267.354981,68.9242124 267.196937,68.4817254 267.003891,68.1245751 C266.450209,67.101587 265.995172,65.9511206 265.87001,65.2536767 C265.806368,64.9017941 265.643022,64.5214659 265.507253,64.408737 C265.368302,64.2949546 265.207077,63.6902223 265.139192,63.0307058 C265.073429,62.3848854 264.904779,61.6747989 264.762646,61.4525019 C264.61521,61.2186158 264.441256,60.2546261 264.351097,59.1694792 C264.266241,58.1359558 264.101834,56.4070955 263.987279,55.3272163 C263.828175,53.8238137 263.828175,52.9483214 263.986218,51.5945216 C264.099713,50.6221035 264.260938,49.0165075 264.343672,48.0272328 C264.427467,47.0379581 264.614149,45.9917922 264.759464,45.7020685 C264.904779,45.4123448 265.078733,44.6854017 265.145556,44.0859371 C265.21238,43.4864724 265.373605,42.9080786 265.504071,42.8006174 C265.634536,42.6931563 265.789397,42.3539162 265.849857,42.0462823 C265.969715,41.4236397 266.503244,40.0708935 267.01662,39.0826723 C267.203302,38.725522 267.354981,38.2735531 267.354981,38.0797016 C267.354981,37.8847966 267.504539,37.6456428 267.688038,37.5476635 C267.871538,37.4507378 268.072009,37.1715495 268.13353,36.9281816 C268.426281,35.7703404 272.219321,30.9904263 274.061745,29.456471 C274.758621,28.8780772 275.449132,28.3060046 275.596569,28.1859009 C275.745066,28.0657973 276.013421,27.8350719 276.193739,27.6738802 C276.372996,27.5116349 276.700751,27.2840701 276.921375,27.1671271 C277.140938,27.0501841 277.405051,26.8847782 277.508999,26.7994414 C277.914184,26.4665225 279.045944,25.7722392 279.183834,25.7722392 C279.263386,25.7722392 279.517952,25.625797 279.750244,25.4456416 C279.981475,25.2654861 280.37075,25.0589922 280.613649,24.9862978 C280.856548,24.91255 281.174756,24.7513583 281.321131,24.6270405 C281.466446,24.5027227 281.917241,24.3130853 282.322426,24.2056242 C282.727611,24.098163 283.284475,23.8937761 283.560255,23.7515482 C283.836035,23.6093202 284.213642,23.4913236 284.400324,23.4913236 C284.587006,23.4902701 284.874454,23.3691129 285.037801,23.2226707 C285.211755,23.0667467 285.843928,22.9108227 286.554593,22.8507709 C287.224951,22.7928261 287.97274,22.6179384 288.215639,22.4620143 C288.504147,22.2776447 289.271029,22.1385774 290.425063,22.0616689 C291.231098,22.0083506 292.286887,21.9833524 293.413485,21.9810633 Z M296.397828,24.5280076 C294.01551,24.0338971 290.689176,24.343638 289.892595,25.1348471 C289.733491,25.2928782 289.478925,25.4214102 289.326185,25.4214102 C288.380046,25.4214102 284.14894,29.3637594 284.14894,30.245573 C284.14894,30.362516 283.989836,30.6016697 283.795729,30.7765575 C283.601622,30.9514452 283.442518,31.190599 283.442518,31.307542 C283.442518,31.424485 283.282353,31.7215835 283.087186,31.968112 C282.892018,32.2146405 282.683062,32.6602883 282.622602,32.9573867 C282.563203,33.2555387 282.447588,33.4989066 282.366975,33.4989066 C282.285302,33.4989066 282.120894,33.8339326 282.001036,34.2448135 C281.881177,34.6556943 281.68601,35.1487514 281.568273,35.3426029 C281.451597,35.5354008 281.296735,36.0484751 281.22673,36.4825339 C281.155663,36.9165927 280.949889,37.5476635 280.767449,37.8847966 C280.553189,38.2819814 280.434392,38.8698571 280.429088,39.553605 C280.424845,40.1351595 280.299684,40.9263685 280.151186,41.3119644 C279.653721,42.6067659 279.607051,45.3617748 280.079059,45.611464 C280.282005,45.7201718 281.722173,45.7718141 285.409143,45.7791648 L285.964856,45.7799259 C286.250849,45.7801498 286.549135,45.7801399 286.860109,45.7799012 L287.499094,45.7791202 C288.811367,45.7769542 290.330874,45.7711808 292.082927,45.7621203 L303.692217,45.7020685 L304.198168,45.3069907 C304.476069,45.0899613 304.787913,44.911913 304.8908,44.911913 C305.163399,44.911913 306.070291,44.0090286 306.070291,43.7372151 C306.070291,43.6097367 306.229395,43.2114983 306.423502,42.8511874 C306.71095,42.3180958 306.777774,41.8598056 306.777774,40.3995982 C306.777774,39.0173528 306.696101,38.3978709 306.423502,37.7130694 C306.218789,37.1968345 306.070291,36.4077325 306.070291,35.8398741 C306.070291,35.1898395 305.957858,34.6714974 305.738294,34.3090794 C305.555855,34.0088203 305.354323,33.4736217 305.291742,33.1206855 C305.228101,32.7688029 305.059451,32.3832071 304.916257,32.2652105 C304.773063,32.1472139 304.656387,31.9133279 304.656387,31.7447614 C304.656387,31.5761949 304.497283,31.2380083 304.302115,30.9925333 C304.108009,30.7470584 303.948905,30.4752449 303.948905,30.387801 C303.948905,29.9895626 301.899645,27.5337592 300.829405,26.6508921 C300.147379,26.0861943 299.075018,25.4277314 298.836362,25.4245708 C298.698472,25.4224637 298.441784,25.2928782 298.26783,25.1359006 C298.092816,24.9789231 297.251686,24.706056 296.397828,24.5280076 Z" id="Combined-Shape"></path>
        </g>
    </g>
</svg>